<svg width="63" height="62" viewBox="0 0 63 62" fill="none" xmlns="http://www.w3.org/2000/svg">
<path d="M31.4994 0.166687C25.4011 0.166687 19.4398 1.97503 14.3693 5.36304C9.29876 8.75105 5.34678 13.5666 3.01308 19.2006C0.679375 24.8347 0.0687724 31.0342 1.25848 37.0153C2.44819 42.9964 5.38478 48.4904 9.6969 52.8025C14.009 57.1146 19.503 60.0512 25.4841 61.2409C31.4652 62.4306 37.6647 61.82 43.2988 59.4863C48.9328 57.1526 53.7483 53.2006 57.1363 48.1301C60.5243 43.0596 62.3327 37.0983 62.3327 31C62.3236 22.8253 59.0722 14.988 53.2918 9.2076C47.5114 3.4272 39.6741 0.175778 31.4994 0.166687ZM31.4994 55.6667C26.6208 55.6667 21.8517 54.22 17.7953 51.5096C13.7389 48.7992 10.5773 44.9468 8.71033 40.4395C6.84337 35.9323 6.35489 30.9727 7.30666 26.1878C8.25843 21.4029 10.6077 17.0077 14.0574 13.5581C17.5071 10.1084 21.9023 7.75909 26.6871 6.80732C31.472 5.85555 36.4316 6.34403 40.9389 8.21099C45.4461 10.078 49.2985 13.2395 52.0089 17.296C54.7193 21.3524 56.166 26.1214 56.166 31C56.1585 37.5397 53.5573 43.8094 48.9331 48.4337C44.3088 53.058 38.0391 55.6592 31.4994 55.6667ZM37.9686 23.7042L34.5827 25.6599V15.5834C34.5827 14.7656 34.2578 13.9813 33.6796 13.4031C33.1014 12.8249 32.3171 12.5 31.4994 12.5C30.6816 12.5 29.8974 12.8249 29.3191 13.4031C28.7409 13.9813 28.416 14.7656 28.416 15.5834V31C28.4162 31.5412 28.5587 32.0728 28.8293 32.5415C29.1 33.0102 29.4892 33.3994 29.9578 33.67C30.4265 33.9407 30.9581 34.0832 31.4993 34.0834C32.0405 34.0835 32.5722 33.9412 33.041 33.6708L41.052 29.0458C41.4029 28.8435 41.7106 28.574 41.9573 28.2527C42.2041 27.9314 42.3851 27.5647 42.4901 27.1734C42.5951 26.7822 42.622 26.374 42.5692 25.9724C42.5164 25.5707 42.385 25.1834 42.1825 24.8326C41.98 24.4817 41.7103 24.1742 41.3889 23.9276C41.0675 23.681 40.7006 23.5001 40.3093 23.3954C39.918 23.2906 39.5099 23.2639 39.1082 23.3169C38.7066 23.3699 38.3194 23.5015 37.9686 23.7042Z" fill="url(#paint0_linear_216_381)"/>
<defs>
<linearGradient id="paint0_linear_216_381" x1="0.666016" y1="31" x2="62.3327" y2="31" gradientUnits="userSpaceOnUse">
<stop offset="0.2254" stop-color="#8C4D00"/>
<stop offset="0.2278" stop-color="#8D4F01"/>
<stop offset="0.3112" stop-color="#B6842D"/>
<stop offset="0.3891" stop-color="#D5AD50"/>
<stop offset="0.4593" stop-color="#ECCB69"/>
<stop offset="0.5194" stop-color="#FADD78"/>
<stop offset="0.5622" stop-color="#FFE47D"/>
<stop offset="0.59" stop-color="#FFE177"/>
<stop offset="0.6269" stop-color="#FDD866"/>
<stop offset="0.6687" stop-color="#FBCA4B"/>
<stop offset="0.7138" stop-color="#F8B625"/>
<stop offset="0.7513" stop-color="#F5A300"/>
<stop offset="0.783" stop-color="#EF9F00"/>
<stop offset="0.8251" stop-color="#DE9400"/>
<stop offset="0.8732" stop-color="#C28100"/>
<stop offset="0.9253" stop-color="#9C6700"/>
<stop offset="0.9352" stop-color="#946200"/>
</linearGradient>
</defs>
</svg>
