<svg width="80" height="79" viewBox="0 0 80 79" fill="none" xmlns="http://www.w3.org/2000/svg">
<g clip-path="url(#clip0_277_818)">
<path d="M78.1628 35.0054C78.6867 34.3285 78.9718 33.4967 78.9733 32.6402V15.576C78.9733 13.5314 78.5711 11.5068 77.7896 9.61786C77.0082 7.72892 75.8627 6.01265 74.4188 4.56709C72.9748 3.12153 71.2606 1.97499 69.3741 1.19296C67.4876 0.41093 65.4657 0.00872617 63.4239 0.0093389H57.7036C57.1999 0.00825545 56.701 0.107056 56.2357 0.300012C55.7704 0.492968 55.3479 0.776277 54.9925 1.13359C54.9042 1.21807 54.8216 1.30845 54.7456 1.40414H43.8731C43.5133 0.967295 43.0616 0.615377 42.5503 0.373471C42.0389 0.131564 41.4806 0.00562844 40.9152 0.00466944H27.7927C27.2892 0.00460682 26.7907 0.103868 26.3254 0.296766C25.8603 0.489664 25.4376 0.772435 25.0816 1.12892C24.9932 1.2134 24.9108 1.30378 24.8347 1.39947H18.7277C18.3681 0.962378 17.9164 0.610275 17.405 0.368345C16.8936 0.126415 16.3352 0.000635746 15.7697 0H15.6346C11.5119 0 7.558 1.64007 4.6428 4.55941C1.72761 7.47873 0.08985 11.4382 0.08985 15.5668V29.4261C0.0905299 30.4456 0.494133 31.4234 1.21249 32.1458L1.48268 32.4164V49.9983L1.21249 50.2689C0.494133 50.9912 0.0905299 51.9691 0.08985 52.9885V63.4192C0.0880127 65.4648 0.488912 67.4907 1.26963 69.381C2.05036 71.2713 3.19556 72.9889 4.63976 74.4356C6.08396 75.8823 7.79881 77.0296 9.6862 77.812C11.5736 78.5944 13.5965 78.9965 15.6392 78.9953H38.8189C39.3231 78.996 39.8226 78.897 40.2886 78.704C40.7546 78.5112 41.178 78.2281 41.5346 77.8711C41.6185 77.787 41.7024 77.6937 41.7816 77.6005H43.0346C43.3948 78.0382 43.8472 78.3906 44.3594 78.6326C44.8716 78.8746 45.431 79 45.9973 78.9999H53.2084C54.2264 78.9993 55.2028 78.595 55.9242 77.8757L56.0592 77.7357C56.4191 78.1339 56.8584 78.4521 57.3485 78.6699C57.8388 78.8876 58.3691 79 58.9054 78.9999H63.4239C67.3504 79.0107 71.1334 77.5227 74.0029 74.8389C74.1427 74.713 74.2825 74.5776 74.4176 74.4423C75.8665 73.0004 77.0153 71.2849 77.7973 69.3951C78.5794 67.5052 78.979 65.4789 78.9733 63.4332V43.3975C78.9727 42.8304 78.8472 42.2705 78.6057 41.7577C78.364 41.2448 78.0125 40.7918 77.5759 40.4306V35.7658L78.1628 35.0054Z" fill="url(#paint0_linear_277_818)"/>
<path d="M78.2939 35.672C78.8139 35.0065 79.0946 34.1847 79.0904 33.3396V16.6859C79.0904 14.6872 78.6972 12.7081 77.9333 10.8616C77.1693 9.01511 76.0497 7.3374 74.6382 5.92432C73.2266 4.51124 71.5509 3.39046 69.7069 2.62601C67.8627 1.86157 65.8863 1.46843 63.8904 1.46904H58.3005C57.8082 1.46742 57.3206 1.56347 56.8656 1.75163C56.4107 1.93979 55.9975 2.21632 55.6499 2.56528C55.5631 2.6482 55.4821 2.73705 55.4077 2.83119H44.7821C44.4314 2.4026 43.9899 2.0576 43.4896 1.82118C42.9892 1.58477 42.4426 1.46287 41.8893 1.46437H29.065C28.0709 1.46594 27.1179 1.86178 26.4145 2.56528C26.3277 2.6482 26.2467 2.73705 26.1723 2.83119H20.205C19.8543 2.4026 19.4128 2.0576 18.9124 1.82118C18.4121 1.58477 17.8654 1.46287 17.3121 1.46437H17.1818C13.1516 1.46685 9.28734 3.0715 6.43805 5.92569C3.58878 8.77988 1.98761 12.6501 1.98638 16.6859V30.2141C1.9863 30.7079 2.08332 31.1969 2.27195 31.6531C2.46058 32.1093 2.7371 32.5239 3.08573 32.8731L3.35126 33.139V50.3245L3.08573 50.5903C2.38235 51.2942 1.98693 52.2489 1.98638 53.2447V63.4421C1.97571 67.3757 3.49827 71.1583 6.23008 73.9848C6.29529 74.0594 6.36518 74.1293 6.4397 74.204C7.84718 75.621 9.52129 76.7442 11.3652 77.509C13.209 78.2737 15.186 78.6645 17.1818 78.659H39.8443C40.8379 78.6597 41.7912 78.2654 42.4948 77.5628C42.5787 77.4787 42.6579 77.3902 42.7371 77.2968H43.9623C44.3142 77.7239 44.7559 78.0679 45.256 78.3042C45.7561 78.5405 46.3021 78.6633 46.855 78.6637H53.9171C54.9114 78.6632 55.8647 78.2672 56.5676 77.5628L56.7027 77.4275C57.0561 77.818 57.4876 78.1298 57.9691 78.3427C58.4506 78.5557 58.9713 78.665 59.4976 78.6637H63.9137C67.9349 78.6513 71.7876 77.0442 74.6284 74.1942C77.4692 71.3441 79.0669 67.4831 79.0717 63.4561V43.8636C79.0714 43.3099 78.9487 42.7631 78.7128 42.2623C78.4769 41.7616 78.1334 41.3191 77.7069 40.9667V36.3951L78.2939 35.672Z" fill="url(#paint1_radial_277_818)"/>
<path d="M76.1749 34.5577C76.1749 34.5577 71.0508 37.7905 71.6796 37.7391C72.3085 37.6879 69.9328 39.4605 69.9328 39.4605L67.2402 41.4197L72.6299 42.6093L75.6578 41.4245H77.0553L76.1749 34.5577Z" fill="url(#paint2_linear_277_818)"/>
<path d="M77.4001 40.7149V36.2226L78.057 35.5042C78.6422 34.8953 78.9751 34.0867 78.9886 33.2417V16.854C78.9886 12.8655 77.1579 9.11029 73.8645 6.28804C70.3755 3.40099 65.9759 1.84862 61.4501 1.90769H58.9393C63.465 1.84862 67.8645 3.40099 71.3537 6.28804C74.675 9.11029 76.4778 12.8655 76.4778 16.854V33.2371C76.4638 34.082 76.131 34.8904 75.5461 35.4996L74.88 36.2226V40.7149C75.3524 41.0256 75.7423 41.4465 76.0166 41.9412C76.2908 42.4361 76.4411 42.9901 76.4545 43.5559V62.7892C76.4545 66.7776 74.6285 70.5375 71.3304 73.3598C67.8406 76.2452 63.4411 77.7959 58.916 77.7355H61.4268C65.952 77.7959 70.3515 76.2452 73.8412 73.3598C77.1533 70.5608 78.9653 66.7776 78.9653 62.7892V43.5419C78.9507 42.9793 78.8008 42.4287 78.5283 41.9365C78.2558 41.4444 77.8688 41.0253 77.4001 40.7149Z" fill="#101221"/>
<path d="M74.0047 74.8385C71.1343 77.5206 67.3515 79.0068 63.4257 78.9949H58.9071C58.3709 78.995 57.8405 78.8825 57.3503 78.6648C56.86 78.447 56.4207 78.1288 56.0609 77.7307L55.9258 77.8707C55.2044 78.5901 54.228 78.9942 53.21 78.9949H45.999C45.4326 78.995 44.8733 78.8696 44.3611 78.6275C43.8489 78.3856 43.3965 78.0332 43.0363 77.5955H41.8065C41.7273 77.6887 41.6435 77.782 41.5597 77.866C41.203 78.2231 40.7796 78.5062 40.3136 78.699C39.8475 78.892 39.3482 78.9909 38.8438 78.9902H18.3008L20.0057 77.1243V73.6723L18.4172 71.9183L20.0057 68.345L21.5104 66.9175L22.442 62.3925L26.8068 59.2625L34.097 64.4918C34.5192 65.0563 35.0974 65.4845 35.7601 65.7233C36.9479 66.1898 40.4836 66.6563 40.4836 66.6563C40.4836 66.6563 44.8018 59.449 46.4648 59.2392C48.1278 59.0292 53.8389 58.5067 53.8389 58.5067C53.8389 58.5067 55.7395 59.8129 57.6448 54.5415C59.5499 49.2702 60.9754 45.501 62.6384 45.8369C64.3014 46.1728 68.9411 55.6891 68.9411 55.6891C68.9411 55.6891 68.587 59.1178 68.9411 61.4549C69.2951 63.792 70.4877 64.0347 72.1553 65.7C73.823 67.3653 73.7484 71.0646 73.7484 71.0646C73.7484 71.0646 73.9488 72.9305 74.0047 74.8385Z" fill="url(#paint3_linear_277_818)"/>
<path d="M44.7832 2.83207C44.7832 2.83207 45.8313 14.4523 50.2707 13.2814C54.71 12.1105 55.651 2.55219 55.651 2.55219L44.7832 2.83207Z" fill="url(#paint4_linear_277_818)"/>
<path d="M41.8893 2.40217C42.3053 2.40031 42.7164 2.49148 43.0928 2.66904C43.4692 2.84658 43.8012 3.10604 44.0646 3.42844L44.3442 3.7643H55.8455L56.125 3.42844L56.3067 3.22786C56.5678 2.9648 56.8785 2.75634 57.2208 2.6146C57.5631 2.47285 57.93 2.40063 58.3004 2.40217H63.8904C67.6705 2.4071 71.2943 3.91406 73.9659 6.59214C76.6376 9.27022 78.1388 12.9005 78.1401 16.6861V33.3677C78.1374 33.9962 77.9279 34.606 77.5438 35.103L76.9895 35.8168L76.7892 36.0687V41.4006L77.1292 41.6806C77.4512 41.9444 77.7102 42.2769 77.8876 42.6538C78.0648 43.0307 78.1559 43.4425 78.154 43.859V63.4516C78.1528 67.2403 76.649 70.8735 73.9733 73.5521C71.2976 76.2307 67.6691 77.7355 63.8857 77.7355H59.4743C59.0797 77.7367 58.6892 77.6541 58.3288 77.4933C57.9682 77.3325 57.6458 77.0971 57.3827 76.8025L56.7119 76.0888L56.0178 76.7838L55.8827 76.9191C55.3516 77.4449 54.6358 77.7413 53.889 77.7449H46.855C46.4398 77.746 46.0295 77.6545 45.654 77.477C45.2785 77.2994 44.9472 77.0403 44.6842 76.7186L44.4047 76.378H42.2992L42.0197 76.7186L41.838 76.9191C41.5769 77.1822 41.2662 77.3907 40.9239 77.5324C40.5816 77.6742 40.2147 77.7463 39.8443 77.7449H17.1864C13.4022 77.7449 9.77292 76.2394 7.09708 73.5598C4.42126 70.8802 2.91799 67.2459 2.91799 63.4562V53.2635C2.91924 52.5142 3.21746 51.796 3.74715 51.2669L4.00802 51.001L4.28287 50.7258V32.7659L4.00802 32.4953L3.74715 32.2295C3.22046 31.6986 2.92419 30.9812 2.92266 30.2329V16.7047C2.92389 12.9168 4.42706 9.28432 7.10176 6.60583C9.77645 3.92735 13.4037 2.42205 17.1864 2.42081H17.3121C17.7281 2.41896 18.1393 2.51014 18.5156 2.68768C18.8921 2.86523 19.2241 3.12468 19.4875 3.4471L19.767 3.78765H26.6147L26.8942 3.45177C26.9501 3.38179 27.0107 3.31648 27.0712 3.25118C27.3336 2.98861 27.6453 2.78052 27.9882 2.63883C28.3312 2.49713 28.6986 2.42462 29.0696 2.42548H41.8893M41.8893 1.4925H29.0696C28.5763 1.49088 28.0876 1.58736 27.6317 1.77635C27.176 1.96532 26.7623 2.24305 26.4145 2.59341C26.3306 2.67738 26.2513 2.76604 26.1722 2.85468H20.2049C19.8543 2.42609 19.4128 2.08107 18.9124 1.84465C18.412 1.60823 17.8654 1.48634 17.3121 1.48784H17.1864C15.1907 1.48723 13.2144 1.88042 11.3706 2.64492C9.52672 3.40943 7.85137 4.53026 6.44023 5.9434C5.02908 7.35654 3.90983 9.03427 3.14641 10.8808C2.38299 12.7272 1.99038 14.7062 1.99099 16.7047V30.2329C1.98938 30.7257 2.08527 31.2142 2.27316 31.6697C2.46105 32.1253 2.73721 32.5391 3.08568 32.8872L3.35121 33.1531V50.3432L3.08568 50.6045C2.73706 50.9537 2.46053 51.3683 2.2719 51.8245C2.08327 52.2807 1.98624 52.7697 1.98633 53.2635V63.4562C1.98756 67.4928 3.58937 71.3638 6.43966 74.2181C9.28995 77.0725 13.1554 78.6766 17.1864 78.6778H39.8443C40.3368 78.6788 40.8246 78.582 41.2796 78.3931C41.7345 78.2041 42.1476 77.9267 42.4948 77.5769C42.5802 77.4927 42.6611 77.4039 42.737 77.311H43.9622C44.3144 77.7379 44.7562 78.0816 45.2561 78.3178C45.7562 78.5541 46.3021 78.6771 46.855 78.6778H53.9169C54.4095 78.6788 54.8973 78.582 55.3522 78.3931C55.8073 78.2041 56.2203 77.9267 56.5676 77.5769L56.7073 77.4416C57.0594 77.8337 57.4907 78.1467 57.9724 78.3597C58.4542 78.5728 58.9756 78.6812 59.5022 78.6778H63.9137C67.9372 78.6679 71.7926 77.0603 74.6343 74.2077C77.4759 71.3551 79.0717 67.4903 79.0717 63.4609V43.8684C79.0732 43.3143 78.9515 42.7669 78.7154 42.2659C78.4794 41.7647 78.1349 41.3226 77.7069 40.9715V36.3999L78.2798 35.6675C78.7919 35.007 79.0705 34.1946 79.0717 33.3583V16.6861C79.0717 12.6503 77.4708 8.77984 74.6211 5.92612C71.7714 3.0724 67.9064 1.46919 63.8764 1.46919H58.2864C57.7939 1.46818 57.306 1.56497 56.8511 1.75394C56.3961 1.9429 55.9831 2.22029 55.6359 2.57009C55.552 2.65406 55.4682 2.74269 55.3936 2.83132H44.7821C44.4297 2.4051 43.9877 2.06203 43.4876 1.82657C42.9876 1.59111 42.4418 1.46908 41.8893 1.46919V1.4925Z" fill="#161828"/>
<path d="M19.9824 3.77811C20.2339 4.83704 22.5212 14.3861 24.2774 14.4747C24.8401 14.5185 25.3994 14.3524 25.8472 14.0082C26.0549 13.7981 26.2139 13.545 26.313 13.2665C26.6484 12.3335 26.8254 8.65759 26.7788 3.68481L19.9824 3.77811Z" fill="url(#paint5_linear_277_818)"/>
<g filter="url(#filter0_f_277_818)">
<path d="M78.975 43.3092V62.6685C78.9773 64.6516 78.5832 66.6151 77.816 68.4433C77.0487 70.2716 75.9239 71.9276 74.5077 73.3138C71.6368 76.1536 67.7592 77.7388 63.7237 77.7221H59.2891C58.7639 77.724 58.2442 77.6164 57.7629 77.406C57.2817 77.1955 56.8496 76.8869 56.4941 76.4999L56.359 76.6351C55.6491 77.3328 54.6938 77.7232 53.6991 77.7221H46.6186C46.0654 77.7234 45.5186 77.603 45.0171 77.3691C44.5156 77.1354 44.0715 76.794 43.7164 76.3693H42.4819C42.4097 76.4639 42.3286 76.5514 42.2397 76.6305C41.533 77.3308 40.5787 77.7233 39.5845 77.7221H16.8427C12.8077 77.7367 8.93087 76.1519 6.05877 73.3138C4.63831 71.9867 3.5253 70.3641 2.79796 68.5602C1.85394 66.0304 1.73006 63.2669 2.44392 60.6626C2.44275 62.6012 2.82917 64.5203 3.58041 66.3069C4.33165 68.0935 5.43252 69.7115 6.81807 71.0652C9.62435 73.8452 13.4171 75.397 17.3645 75.3803H39.5984C40.5742 75.3799 41.5107 74.9964 42.2071 74.312C42.2863 74.2327 42.3655 74.1488 42.4447 74.0555H43.6698C44.0185 74.4691 44.4528 74.8018 44.9426 75.0306C45.4325 75.2594 45.9662 75.3787 46.5067 75.3803H53.4057C54.378 75.3774 55.3108 74.9941 56.0049 74.312L56.14 74.1814C56.4882 74.5586 56.9103 74.8598 57.38 75.0661C57.8498 75.2724 58.3569 75.3793 58.8698 75.3803H63.202C67.1494 75.397 70.9421 73.8452 73.7485 71.0652C75.1357 69.7146 76.2389 68.0998 76.9934 66.3155C77.7478 64.5314 78.1381 62.6141 78.1412 60.6765V41.7324C78.1427 41.4171 78.1004 41.1031 78.0154 40.7994C78.6405 41.4845 78.9834 42.3812 78.975 43.3092Z" fill="#163A82"/>
</g>
<path d="M26.8061 31.8801L21.4863 36.9508L23.3915 41.1819C23.3915 41.1819 25.2269 44.5919 26.8061 45.287C28.3852 45.9821 30.5327 49.0469 31.9534 48.2306C33.3742 47.4142 34.3338 47.4515 34.809 45.287C35.2842 43.1225 37.4269 41.709 36.9471 40.5102C36.4674 39.3113 31.2966 38.243 29.1259 36.3958C27.8152 35.2346 26.9874 33.6232 26.8061 31.8801Z" fill="url(#paint6_linear_277_818)"/>
</g>
<defs>
<filter id="filter0_f_277_818" x="0.998828" y="39.8119" width="78.9633" height="38.8978" filterUnits="userSpaceOnUse" color-interpolation-filters="sRGB">
<feFlood flood-opacity="0" result="BackgroundImageFix"/>
<feBlend mode="normal" in="SourceGraphic" in2="BackgroundImageFix" result="shape"/>
<feGaussianBlur stdDeviation="0.49375" result="effect1_foregroundBlur_277_818"/>
</filter>
<linearGradient id="paint0_linear_277_818" x1="39.5316" y1="78.1743" x2="39.5316" y2="1.97325" gradientUnits="userSpaceOnUse">
<stop offset="0.26" stop-color="#313349"/>
<stop offset="0.68" stop-color="#2A2B41"/>
<stop offset="1" stop-color="#212238"/>
</linearGradient>
<radialGradient id="paint1_radial_277_818" cx="0" cy="0" r="1" gradientUnits="userSpaceOnUse" gradientTransform="translate(76.2768 41.018) scale(84.3849 84.5045)">
<stop offset="0.26" stop-color="#26273D" stop-opacity="0"/>
<stop offset="0.62" stop-color="#25263C" stop-opacity="0.05"/>
<stop offset="0.75" stop-color="#232438" stop-opacity="0.22"/>
<stop offset="0.84" stop-color="#1E1F32" stop-opacity="0.51"/>
<stop offset="0.92" stop-color="#17192A" stop-opacity="0.93"/>
<stop offset="0.93" stop-color="#161828"/>
</radialGradient>
<linearGradient id="paint2_linear_277_818" x1="79.1981" y1="49.7932" x2="69.5033" y2="34.5608" gradientUnits="userSpaceOnUse">
<stop offset="0.26" stop-color="#313349" stop-opacity="0"/>
<stop offset="0.51" stop-color="#27293D" stop-opacity="0.47"/>
<stop offset="0.8" stop-color="#1E2033" stop-opacity="0.86"/>
<stop offset="1" stop-color="#1B1D30"/>
</linearGradient>
<linearGradient id="paint3_linear_277_818" x1="51.179" y1="85.3998" x2="37.3525" y2="52.5402" gradientUnits="userSpaceOnUse">
<stop offset="0.26" stop-color="#313349" stop-opacity="0"/>
<stop offset="0.51" stop-color="#27293D" stop-opacity="0.47"/>
<stop offset="0.8" stop-color="#1E2033" stop-opacity="0.86"/>
<stop offset="1" stop-color="#1B1D30"/>
</linearGradient>
<linearGradient id="paint4_linear_277_818" x1="46.1574" y1="23.3436" x2="50.2119" y2="3.02088" gradientUnits="userSpaceOnUse">
<stop offset="0.26" stop-color="#313349" stop-opacity="0"/>
<stop offset="0.51" stop-color="#27293D" stop-opacity="0.47"/>
<stop offset="0.8" stop-color="#1E2033" stop-opacity="0.86"/>
<stop offset="1" stop-color="#1B1D30"/>
</linearGradient>
<linearGradient id="paint5_linear_277_818" x1="32.2989" y1="29.1038" x2="23.1597" y2="3.8657" gradientUnits="userSpaceOnUse">
<stop offset="0.26" stop-color="#313349" stop-opacity="0"/>
<stop offset="0.51" stop-color="#27293D" stop-opacity="0.47"/>
<stop offset="0.8" stop-color="#1E2033" stop-opacity="0.86"/>
<stop offset="1" stop-color="#1B1D30"/>
</linearGradient>
<linearGradient id="paint6_linear_277_818" x1="34.2127" y1="48.2585" x2="25.3893" y2="32.0725" gradientUnits="userSpaceOnUse">
<stop offset="0.26" stop-color="#313349" stop-opacity="0"/>
<stop offset="0.51" stop-color="#27293D" stop-opacity="0.47"/>
<stop offset="0.8" stop-color="#1E2033" stop-opacity="0.86"/>
<stop offset="1" stop-color="#1B1D30"/>
</linearGradient>
<clipPath id="clip0_277_818">
<rect width="79.9875" height="79" fill="white"/>
</clipPath>
</defs>
</svg>
