<svg width="26" height="26" viewBox="0 0 26 26" fill="none" xmlns="http://www.w3.org/2000/svg">
<path d="M12.9994 9.89339C15.507 9.89339 17.5399 7.86056 17.5399 5.35295C17.5399 2.84533 15.507 0.8125 12.9994 0.8125C10.4918 0.8125 8.45898 2.84533 8.45898 5.35295C8.45898 7.86056 10.4918 9.89339 12.9994 9.89339Z" stroke="#2D3660" stroke-width="1.625"/>
<path d="M5.35295 25.1876C7.86056 25.1876 9.89339 23.1548 9.89339 20.6471C9.89339 18.1395 7.86056 16.1067 5.35295 16.1067C2.84533 16.1067 0.8125 18.1395 0.8125 20.6471C0.8125 23.1548 2.84533 25.1876 5.35295 25.1876Z" stroke="#4D5B97" stroke-width="1.625"/>
<path d="M20.6459 25.1876C23.1535 25.1876 25.1864 23.1548 25.1864 20.6471C25.1864 18.1395 23.1535 16.1067 20.6459 16.1067C18.1383 16.1067 16.1055 18.1395 16.1055 20.6471C16.1055 23.1548 18.1383 25.1876 20.6459 25.1876Z" stroke="#3B436B" stroke-width="1.625"/>
</svg>
