<svg width="127" height="128" viewBox="0 0 127 128" fill="none" xmlns="http://www.w3.org/2000/svg">
<g filter="url(#filter0_d_1_362)">
<g clip-path="url(#clip0_1_362)">
<rect x="5" y="5" width="116.25" height="118" rx="2" fill="url(#paint0_linear_1_362)"/>
<rect x="5" y="3" width="116" height="122" fill="url(#paint1_linear_1_362)"/>
<path d="M65.5946 53.7568L73.7027 61.5946C74.1532 62.045 74.6486 62.045 75.1892 61.5946L83.027 55.5135L92.7568 63.0811L87.7568 63.4865C87.036 63.4865 86.6757 63.8694 86.6757 64.6351C86.6757 65.4009 87.036 65.7838 87.7568 65.7838H87.8919L95.8649 65.1081C96.2252 65.1081 96.4955 64.9955 96.6757 64.7703C96.8559 64.545 96.9459 64.2523 96.9459 63.8919L96.4054 56.5946C96.3153 55.7838 95.8874 55.4009 95.1216 55.4459C94.3559 55.491 94.018 55.9189 94.1081 56.7297L94.3784 61.4595L83.7027 53.2162C83.2523 52.7658 82.7568 52.7658 82.2162 53.2162L74.5135 59.1622L67.0811 52.1351C66.5405 51.5946 66.0225 51.5946 65.527 52.1351C65.0315 52.6757 65.0541 53.2162 65.5946 53.7568Z" fill="#A43E93"/>
<path fill-rule="evenodd" clip-rule="evenodd" d="M100.324 93.9595C100.324 93.1937 99.9189 92.8108 99.1081 92.8108H93.7027V79.2973C93.7027 78.5766 93.2973 78.2162 92.4865 78.2162H81.4054C80.5946 78.2162 80.1892 78.5766 80.1892 79.2973V92.8108H73.1622V68.8919C73.1622 68.1712 72.7568 67.8108 71.9459 67.8108H60.8649C60.5946 67.8108 60.3468 67.9234 60.1216 68.1486C59.8964 68.3739 59.7838 68.6216 59.7838 68.8919V92.8108H52.6216V63.3513C52.6216 62.991 52.4865 62.7207 52.2162 62.5405C51.9459 62.3604 51.6757 62.2703 51.4054 62.2703H40.3243C39.964 62.2703 39.6937 62.3604 39.5135 62.5405C39.3333 62.7207 39.2432 62.991 39.2432 63.3513V92.8108H33.2973V40.1081C33.2973 39.2973 32.9144 38.8919 32.1486 38.8919C31.3829 38.8919 31 39.2973 31 40.1081V93.8919C31 94.7027 31.4054 95.1081 32.2162 95.1081H99.1081C99.9189 95.1081 100.324 94.7252 100.324 93.9595ZM50.3243 92.8108H41.5405V64.5676H50.3243V92.8108ZM70.8649 92.8108H62.0811V70.1081H70.8649V92.8108ZM91.4054 92.8108H82.4865V80.5135H91.4054V92.8108Z" fill="#A43E93"/>
<path fill-rule="evenodd" clip-rule="evenodd" d="M56.3338 43.0482V41.5639H54.6517C54.5986 41.4208 54.5386 41.2813 54.4716 41.1455C54.1477 40.4843 53.6439 39.9625 52.9602 39.5802C52.2765 39.1934 51.3949 39 50.3153 39H45.7003V41.5639H44V43.0482H45.7003V43.7769H44V45.2613H45.7003V52.8181H47.3736V47.8252H50.3423C51.4129 47.8252 52.2878 47.6273 52.967 47.2315C53.6462 46.8312 54.1477 46.2959 54.4716 45.6257C54.5287 45.5066 54.5809 45.3851 54.6279 45.2613H56.3338V43.7769H54.9441C54.9529 43.6441 54.9574 43.5091 54.9574 43.3721C54.9574 43.2627 54.9546 43.1547 54.9489 43.0482H56.3338ZM52.862 41.5639H47.3736V40.4843H50.3153C51.062 40.4843 51.6535 40.608 52.0898 40.8554C52.4166 41.0373 52.674 41.2735 52.862 41.5639ZM53.3003 43.0482C53.3075 43.1536 53.3111 43.2616 53.3111 43.3721C53.3111 43.5105 53.3054 43.6455 53.2942 43.7769H47.3736V43.0482H53.3003ZM47.3736 45.2613H52.8354C52.6526 45.5394 52.4063 45.7711 52.0966 45.9563C51.6648 46.2127 51.08 46.3409 50.3423 46.3409H47.3736V45.2613Z" fill="#A43E93"/>
<path fill-rule="evenodd" clip-rule="evenodd" d="M57.5541 58.1824L59.6486 56.1216C62.4414 53.3739 63.8378 50.0405 63.8378 46.1216C63.8378 42.2027 62.4414 38.8694 59.6486 36.1216C56.8559 33.3739 53.5225 32 49.6486 32C45.7748 32 42.4414 33.3739 39.6486 36.1216C36.8559 38.8694 35.4595 42.2027 35.4595 46.1216C35.4595 50.0405 36.8559 53.3739 39.6486 56.1216C42.4414 58.8694 45.7748 60.2432 49.6486 60.2432C53.5225 60.2432 56.1577 59.5563 57.5541 58.1824ZM56.2703 36.0203L58.027 37.7432C60.3694 40.0405 61.5405 42.8333 61.5405 46.1216C61.5405 49.4099 60.3694 52.2027 58.027 54.5C55.6847 56.7973 52.8919 57.9459 49.6486 57.9459C46.4054 57.9459 43.6126 56.7973 41.2703 54.5C38.9279 52.2027 37.7568 49.4099 37.7568 46.1216C37.7568 42.8333 38.9279 40.0405 41.2703 37.7432C43.6126 35.4459 46.4054 34.2973 49.6486 34.2973C52.8919 34.2973 55.0991 34.8716 56.2703 36.0203Z" fill="#A43E93"/>
</g>
<rect x="5.5" y="5.5" width="115.25" height="117" rx="1.5" stroke="#E0B406" stroke-opacity="0.7"/>
</g>
<defs>
<filter id="filter0_d_1_362" x="0" y="0" width="126.25" height="128" filterUnits="userSpaceOnUse" color-interpolation-filters="sRGB">
<feFlood flood-opacity="0" result="BackgroundImageFix"/>
<feColorMatrix in="SourceAlpha" type="matrix" values="0 0 0 0 0 0 0 0 0 0 0 0 0 0 0 0 0 0 127 0" result="hardAlpha"/>
<feMorphology radius="1" operator="dilate" in="SourceAlpha" result="effect1_dropShadow_1_362"/>
<feOffset/>
<feGaussianBlur stdDeviation="2"/>
<feComposite in2="hardAlpha" operator="out"/>
<feColorMatrix type="matrix" values="0 0 0 0 0.968627 0 0 0 0 0.67451 0 0 0 0 0.0156863 0 0 0 0.8 0"/>
<feBlend mode="normal" in2="BackgroundImageFix" result="effect1_dropShadow_1_362"/>
<feBlend mode="normal" in="SourceGraphic" in2="effect1_dropShadow_1_362" result="shape"/>
</filter>
<linearGradient id="paint0_linear_1_362" x1="63.125" y1="5" x2="63.125" y2="123" gradientUnits="userSpaceOnUse">
<stop stop-color="#FED77D"/>
<stop offset="1" stop-color="#F7AC04"/>
</linearGradient>
<linearGradient id="paint1_linear_1_362" x1="63" y1="3" x2="63" y2="125" gradientUnits="userSpaceOnUse">
<stop stop-color="#FED77C"/>
<stop offset="1" stop-color="#F4AB0E"/>
</linearGradient>
<clipPath id="clip0_1_362">
<rect x="5" y="5" width="116.25" height="118" rx="2" fill="white"/>
</clipPath>
</defs>
</svg>
