<svg width="38" height="38" viewBox="0 0 38 38" fill="none" xmlns="http://www.w3.org/2000/svg">
<g filter="url(#filter0_d_258_616)">
<path d="M19.3438 3.44922C10.7908 3.44922 3.79297 10.4471 3.79297 19C3.79297 27.553 10.7908 34.5509 19.3438 34.5509C27.8967 34.5509 34.8946 27.553 34.8946 19C34.8946 10.4471 27.8967 3.44922 19.3438 3.44922ZM19.3438 28.175C14.3675 28.175 10.1688 24.1318 10.1688 19C10.1688 16.3564 11.4129 13.7128 13.4345 12.0022C14.0565 11.5356 15.1451 11.5356 15.6116 12.1577C16.2336 12.9352 16.0781 13.8683 15.4561 14.4903C14.0565 15.5789 13.279 17.2894 13.279 19.1555C13.279 22.4212 15.9226 25.2204 19.3438 25.2204C22.765 25.2204 25.4086 22.5767 25.4086 19.1555C25.4086 17.445 24.6311 15.7344 23.2315 14.4903C22.6095 14.0238 22.454 12.9352 23.076 12.3132C23.698 11.6912 24.6311 11.5356 25.2531 12.1577C27.2747 13.8683 28.5188 16.5119 28.5188 19.1555C28.5188 24.1318 24.3201 28.175 19.3438 28.175ZM19.3438 8.89201C20.1213 8.89201 20.8989 9.51404 20.8989 10.4471V16.2009C20.8989 16.9784 20.1213 17.756 19.3438 17.756C18.5662 17.756 17.7887 16.9784 17.7887 16.2009V10.4471C17.7887 9.51404 18.5662 8.89201 19.3438 8.89201Z" fill="url(#paint0_linear_258_616)"/>
</g>
<defs>
<filter id="filter0_d_258_616" x="-0.207031" y="-0.550781" width="39.1016" height="39.1017" filterUnits="userSpaceOnUse" color-interpolation-filters="sRGB">
<feFlood flood-opacity="0" result="BackgroundImageFix"/>
<feColorMatrix in="SourceAlpha" type="matrix" values="0 0 0 0 0 0 0 0 0 0 0 0 0 0 0 0 0 0 127 0" result="hardAlpha"/>
<feMorphology radius="2" operator="dilate" in="SourceAlpha" result="effect1_dropShadow_258_616"/>
<feOffset/>
<feGaussianBlur stdDeviation="1"/>
<feComposite in2="hardAlpha" operator="out"/>
<feColorMatrix type="matrix" values="0 0 0 0 0.968627 0 0 0 0 0.67451 0 0 0 0 0.0156863 0 0 0 0.8 0"/>
<feBlend mode="normal" in2="BackgroundImageFix" result="effect1_dropShadow_258_616"/>
<feBlend mode="normal" in="SourceGraphic" in2="effect1_dropShadow_258_616" result="shape"/>
</filter>
<linearGradient id="paint0_linear_258_616" x1="19.3438" y1="3.44922" x2="19.3438" y2="34.5509" gradientUnits="userSpaceOnUse">
<stop offset="0.3" stop-color="#FFD679"/>
<stop offset="0.7" stop-color="#F7AC03"/>
</linearGradient>
</defs>
</svg>
