<svg width="34" height="30" viewBox="0 0 34 30" fill="none" xmlns="http://www.w3.org/2000/svg">
<path d="M17.4964 47.7273C26.1983 47.7273 32.9941 44.7714 33.0217 37.2574C33.0493 26.2902 26.8613 17.2291 18.1594 17.2291C9.45745 17.2291 1.44618 28.1411 1.39093 36.5944C1.33568 44.1361 8.79445 47.7273 17.4964 47.7273Z" fill="white"/>
<path d="M30.8943 11.704C31.1982 5.59878 25.6731 0.377624 19.4575 0.0184968C13.2418 -0.34063 8.37982 4.57664 8.07593 10.6818C7.77204 16.787 12.6617 21.9805 18.8774 22.3396C25.093 22.7264 30.5628 17.8367 30.8943 11.704Z" fill="white"/>
<path d="M13.5187 7.05873C12.9992 6.96525 12.708 6.16757 12.8682 5.27707C13.0285 4.38658 13.5795 3.74047 14.0989 3.83394C14.6184 3.92741 14.9096 4.72508 14.7493 5.61557C14.5891 6.50606 14.0381 7.15214 13.5187 7.05873Z" fill="#161B2A"/>
<path d="M21.1883 8.94143C20.5624 8.82879 20.2115 7.86756 20.4046 6.79447C20.5977 5.72138 21.2616 4.94278 21.8876 5.05542C22.5136 5.16806 22.8645 6.12928 22.6714 7.20238C22.4783 8.2755 21.8143 9.05407 21.1883 8.94143Z" fill="#161B2A"/>
<path fill-rule="evenodd" clip-rule="evenodd" d="M13.6034 11.4705C13.7688 11.4143 13.9484 11.5028 14.0046 11.6682C14.2208 12.3048 15.0247 13.3407 16.388 13.5444C17.0831 13.6482 17.783 13.4102 18.3954 13.0083C19.0077 12.6063 19.4999 12.061 19.7677 11.6129C19.8574 11.463 20.0516 11.4141 20.2015 11.5038C20.3514 11.5934 20.4003 11.7877 20.3107 11.9376C19.9934 12.4684 19.4341 13.0832 18.7425 13.5371C18.0511 13.991 17.1946 14.3045 16.2945 14.1701C14.6545 13.9251 13.6831 12.6888 13.4056 11.8717C13.3494 11.7063 13.4379 11.5267 13.6034 11.4705Z" fill="#161B2A"/>
<path fill-rule="evenodd" clip-rule="evenodd" d="M13.5301 11.2564C13.8137 11.1601 14.1217 11.3119 14.2179 11.5955C14.4122 12.1673 15.1561 13.1319 16.4208 13.3208C17.0428 13.4137 17.6867 13.2027 18.2708 12.8192C18.8549 12.4358 19.323 11.9154 19.5732 11.4969C19.7269 11.2398 20.0599 11.156 20.3169 11.3097C20.5739 11.4634 20.6577 11.7964 20.504 12.0535C20.169 12.6138 19.5857 13.2535 18.8659 13.7259C18.1464 14.1982 17.2339 14.5388 16.2605 14.3934C14.5216 14.1337 13.4904 12.8257 13.191 11.9442C13.0948 11.6607 13.2465 11.3528 13.5301 11.2564ZM13.7901 11.7408C13.774 11.6935 13.7227 11.6682 13.6754 11.6843C13.6282 11.7003 13.6029 11.7517 13.619 11.7989C13.8746 12.5517 14.7863 13.7163 16.3273 13.9465C17.1541 14.07 17.9547 13.7835 18.618 13.3481C19.2812 12.9128 19.8165 12.3228 20.1162 11.8215C20.1418 11.7787 20.1279 11.7232 20.085 11.6976C20.0422 11.672 19.9867 11.686 19.9611 11.7288C19.6755 12.2064 19.1594 12.7765 18.5188 13.197C17.8781 13.6175 17.1223 13.8825 16.354 13.7678C14.8921 13.5494 14.0283 12.442 13.7901 11.7408Z" fill="#161B2A"/>
<path d="M16.7306 7.73297C16.9603 7.7869 17.1698 7.89927 17.3076 8.10436C17.5108 8.38459 17.6803 8.83629 17.5148 9.4982C17.3563 10.2149 16.7888 10.5665 16.3646 10.7324C16.1011 10.8499 15.7892 10.8065 15.5488 10.6703C14.3161 9.96552 10.2506 7.59197 10.4505 6.98134C10.6098 6.48733 15.4995 7.47354 16.7306 7.73297Z" fill="#FFB41E"/>
<path d="M28.2955 18.1683C28.2955 18.1683 28.7099 18.6655 28.8204 19.1904C28.9309 19.7153 28.4889 20.4335 28.5165 20.4888C28.5441 20.5441 29.1243 20.7927 28.9309 21.7043C28.7375 22.6159 26.9142 23.9143 19.2621 23.4447C11.6099 22.975 9.89714 21.6214 9.1513 20.7098C8.37778 19.7982 9.26175 19.218 9.26175 18.9694C9.26175 18.7207 8.87503 17.2843 9.75901 17.0909C9.75901 17.0909 11.0851 19.2457 18.3781 19.4667C25.6711 19.6876 26.9142 19.1075 28.2955 18.1683Z" fill="#FFC701"/>
</svg>
