<svg width="108" height="62" viewBox="0 0 108 62" fill="none" xmlns="http://www.w3.org/2000/svg">
<path d="M66.7824 34.0653L62.0875 34.1048C56.3163 30.9405 45.796 28.8224 33.7727 28.8224C21.1486 28.8224 10.1812 31.1576 4.62875 34.5874L0.763672 34.6195V39.6643C0.763672 39.6753 0.763672 39.6863 0.763672 39.698C0.763672 45.7028 15.5449 50.5706 33.7727 50.5706C52.0004 50.5706 66.7824 45.7028 66.7824 39.698C66.7824 39.6863 66.7824 39.6753 66.7824 39.6643V34.0653Z" fill="url(#paint0_linear_57_5050)"/>
<path d="M33.7727 45.2589C52.0031 45.2589 66.7817 40.3907 66.7817 34.3855C66.7817 28.3803 52.0031 23.5121 33.7727 23.5121C15.5423 23.5121 0.763672 28.3803 0.763672 34.3855C0.763672 40.3907 15.5423 45.2589 33.7727 45.2589Z" fill="#FF922E"/>
<path d="M33.7752 41.066C44.9761 41.066 54.0562 38.0751 54.0562 34.3857C54.0562 30.6962 44.9761 27.7053 33.7752 27.7053C22.5743 27.7053 13.4941 30.6962 13.4941 34.3857C13.4941 38.0751 22.5743 41.066 33.7752 41.066Z" fill="white"/>
<path d="M33.793 27.5195H32.8527C32.1209 27.5297 31.4007 27.5527 30.6918 27.5882L30.9216 28.0949C31.8648 28.0488 32.8315 28.0254 33.793 28.0254V27.5136V27.5195ZM27.6595 27.8214L27.5863 27.8295H27.5636H27.5497H27.5409H27.5278H27.5175H27.5051H27.4948H27.4817H27.4722H27.459H27.4092H27.4004H27.2987H27.29H27.2526H27.2439H27.2175H27.2095H27.1992H27.1795H27.1692H27.159H27.1487H27.1275H27.1063H27.0814H27.0704H27.0602H27.0492H27.0331H27.0221H27.0119H27.0009H26.9782H26.9555H26.9329H26.9109H26.8882C26.1585 27.964 25.4506 28.0849 24.7647 28.1921L25.4394 28.6542C26.3021 28.5175 27.2029 28.4012 28.1168 28.3091L27.6602 27.8185L27.6595 27.8214ZM22.0704 28.7039C21.2414 28.8903 20.4555 29.095 19.7179 29.3173L19.7003 29.3232L19.6827 29.3283H19.6747H19.6674H19.6593H19.6527H19.6454L20.7021 29.7041C21.4053 29.4899 22.1655 29.2917 22.9544 29.1141L22.0763 28.69L22.0704 28.7039ZM17.5175 30.093C16.9135 30.3374 16.3254 30.6194 15.7569 30.9375L17.1026 31.1949C17.6288 30.9009 18.1729 30.6399 18.7315 30.4133L17.5204 30.0916L17.5175 30.093ZM14.3988 31.8587C14.1136 32.0914 13.8527 32.3522 13.6202 32.6374C13.618 32.6399 13.6161 32.6426 13.6144 32.6454C13.6128 32.6482 13.6109 32.6507 13.6085 32.6527L13.6027 32.66L13.5975 32.6674L13.5917 32.6747L13.5858 32.682L13.58 32.6893V32.693V32.6966V32.7003V32.7039V32.7083C13.5801 32.7101 13.5801 32.7117 13.58 32.7134L13.5749 32.7215L13.5654 32.7346L15.0815 32.8501C15.3255 32.5124 15.6131 32.2082 15.9369 31.9457L14.4903 31.7571L14.3988 31.8587ZM13.0034 33.8489C12.9815 33.9406 12.9653 34.0337 12.9551 34.1274C12.9551 34.1274 12.9551 34.1326 12.9551 34.1355V34.1435V34.1516V34.1567V34.1611V34.1728V34.1837V34.2832V34.2912V34.2949V34.2985V34.3066V34.319V34.327V34.3307V34.3343V34.3424V34.346V34.3497V34.3577V34.3614V34.3651V34.3687V34.3797V34.3833V34.387V34.3906V34.3943V34.398V34.4053V34.4089V34.4162C12.9551 34.4162 12.9551 34.4243 12.9551 34.4279V34.4352C12.9595 34.5192 12.9682 34.603 12.9814 34.686C12.981 34.6885 12.981 34.6909 12.9814 34.6933V34.697V34.7036V34.7204V34.7277C12.9858 34.7511 12.9902 34.7738 12.9953 34.7972L14.5474 34.7613C14.4802 34.4477 14.4839 34.123 14.5583 33.8109L13.007 33.7714L13.0034 33.8489ZM14.9593 35.7739L13.4402 35.8858C13.5918 36.1073 13.7633 36.3146 13.9524 36.5051L13.9598 36.5124L13.9671 36.5197L13.9744 36.5277H13.9781V36.5314L13.9817 36.5351H13.9854H13.989L13.9927 36.5387V36.5424V36.546H13.9964L14 36.5497L14.0073 36.5563L14.0146 36.5628L14.022 36.5701L14.0293 36.5775C14.035 36.582 14.0403 36.5869 14.0454 36.5921C14.1098 36.6513 14.1764 36.7105 14.2451 36.769L15.6969 36.584C15.4194 36.3447 15.1717 36.0726 14.9593 35.7739ZM17.0302 37.536L15.6794 37.7904L15.7642 37.8394L15.7767 37.846L15.7877 37.8518H15.7928H15.7979H15.803H15.8074H15.8111H15.8155H15.8199H15.8242H15.8294H15.836L15.8469 37.8577L15.8579 37.8635C16.1472 38.0225 16.4543 38.1764 16.7792 38.3256L16.7931 38.3322L16.8063 38.338H16.8143H16.8187H16.826H16.8304H16.837L16.8487 38.3431H16.8538H16.8575H16.8619H16.8655H16.8692H16.8736H16.878H16.8824H16.8882H16.8933H16.8992H16.9043H16.9109L16.9241 38.349L16.938 38.3548L16.9526 38.3607C17.0775 38.4173 17.2053 38.4723 17.336 38.5259L18.5573 38.2086C18.0047 37.9808 17.467 37.7182 16.9475 37.4226L17.0302 37.536ZM20.5879 39.0202L19.5225 39.3938L19.7991 39.4779L19.8166 39.483L19.8342 39.4881H19.8423H19.8503H19.8591H19.8671H19.8752L19.8913 39.4925H19.8993H19.9074H19.9147H19.922H19.9301H19.9367H19.944H19.9513H19.9593H19.9667H19.9725H19.9798H19.9864H19.9937H19.9989H20.0062H20.012H20.0186H20.0223H20.0274H20.0318H20.0369H20.0406H20.0471H20.0515H20.0552H20.0618H20.0654H20.0698H20.0735H20.0801H20.0837H20.0881H20.0925H20.0984H20.1035H20.1086H20.113H20.1174H20.1218H20.1276H20.1313H20.135H20.1415H20.1452H20.1496H20.1533H20.1598H20.1672H20.1737H20.1774H20.1825H20.1898H20.195H20.203H20.2074H20.2111H20.2184H20.2257H20.233H20.2418H20.2469H20.2557H20.2608H20.2689H20.274H20.2835L20.2989 39.4969L20.3157 39.5013H20.3252H20.3303H20.3406H20.3457H20.3552L20.3713 39.5056L20.3881 39.51H20.3977H20.4028H20.413H20.4181H20.4277L20.4445 39.5151L20.4613 39.5195H20.4716H20.4774H20.4884H20.4942H20.5059L20.5235 39.5246L20.5411 39.5298L20.5586 39.5342L20.5886 39.5422L20.6062 39.5466L20.6238 39.5517L20.6413 39.5561L20.6713 39.5641L20.6889 39.5693L20.7064 39.5736L20.724 39.578L20.754 39.5861L20.7723 39.5912L20.7906 39.5956L20.8082 39.6007L20.8265 39.6051H20.8382L20.8557 39.6095L20.874 39.6138L20.8916 39.6182H20.9026H20.9084H20.9194H20.9252H20.9369L20.9545 39.6226L20.9713 39.627H20.9816H20.9874H20.997H21.0028H21.0138L21.0306 39.6314L21.0474 39.6358H21.0584H21.0672H21.076H21.0811H21.0906H21.1001H21.1096L21.1257 39.6402H21.1338H21.1389H21.147H21.1521H21.1557H21.1631H21.3255H21.3299H21.3372H21.3409H21.346H21.3518H21.3599H21.3672H21.3723H21.3804H21.384H21.3884H21.3958H21.4038H21.4089H21.4148H21.4192H21.4228H21.4301H21.4345H21.4389H21.4455H21.4499H21.4719H21.477H21.4828H21.4865H21.4923H21.4967H21.5019H21.5055H21.5136H21.5194H21.5267H21.5326H21.5399H21.5436H21.5494H21.5567H21.5604H21.5662H21.5728H21.5809H21.5875H21.5955H21.6021H21.6102H21.6167H21.6248H21.6328H21.6416H21.6504H21.6584H21.6672H21.6753H21.6848H21.6936H21.7024L21.7206 39.6446H21.7294H21.7382H21.747H21.7565H21.7653L21.7843 39.6489L21.8033 39.6533L21.8224 39.6577L21.8824 39.6716L22.7678 39.2497C21.9811 39.0706 21.2275 38.8703 20.5294 38.6539L20.5879 39.0202ZM25.3062 40.0949L24.6184 40.5563C24.7618 40.5797 24.9059 40.6023 25.0508 40.6243H25.072H25.0918H25.1108H25.1203H25.1328H25.1416H25.1774H25.184H25.2155H25.2242H25.2308H25.2557H25.2652H25.2725H25.282H25.2938H25.304H25.3135H25.3238L25.3442 40.6279H25.3655H25.3867C26.0667 40.7255 26.7653 40.812 27.4824 40.8875L27.9507 40.3984C27.039 40.304 26.1411 40.1856 25.2813 40.0467L25.3062 40.0949ZM30.776 40.6638L30.5345 41.1697H30.7072H30.7299H30.8126H30.8857C31.7843 41.2106 32.7027 41.2333 33.6342 41.2355L33.6459 40.7237C32.6844 40.7237 31.7192 40.6952 30.7767 40.6469L30.776 40.6638ZM39.3264 40.4766C38.4103 40.5672 37.4649 40.6352 36.5165 40.6791L36.736 41.1865L37.0324 41.1726H37.0558H37.0792H37.6544H37.6771H37.6998H37.7224H37.7459C38.4332 41.1293 39.1076 41.0749 39.7691 41.0096L39.3264 40.4766ZM44.5152 39.6723C43.7191 39.8478 42.8769 40.005 42.0119 40.1395L42.6756 40.6031C43.1859 40.5241 43.684 40.4386 44.1698 40.3464L44.243 40.3318L44.2628 40.3282L44.2825 40.3245L44.3023 40.3209H44.3147H44.3228H44.3345H44.3411H44.3528H44.3711L44.3894 40.3172H44.3996H44.4099H44.4194H44.4245H44.4486H44.4567H44.4655H44.4706H44.4816H44.486H44.4933H44.5064H44.5138H44.5182H44.5225H44.5269H44.5342H44.5438H44.5482H44.5591H44.565H44.5701H44.576H44.5833H44.5899H44.5979H44.6096H44.6184H44.625H44.633H44.6404H44.6491H44.6565H44.6645H44.6733H44.6821H44.6908H44.6982H44.7069H44.7143H44.723H44.7311H44.7399H44.7582H44.7677H44.7772H44.7867H44.7962H44.8057H44.8152H44.8248L44.8445 40.3135L44.8635 40.3099L44.8833 40.3062L44.9031 40.3018C45.0465 40.2722 45.1884 40.2417 45.3289 40.2105L44.5218 39.6709L44.5152 39.6723ZM48.7593 38.3987C48.1549 38.6436 47.489 38.8754 46.7836 39.0874L47.8315 39.4669C48.5991 39.2366 49.3133 38.988 49.9689 38.7226L48.7659 38.3972L48.7593 38.3987ZM51.6863 36.7719C51.2861 37.0915 50.8588 37.3757 50.4094 37.6215L51.7485 37.8825C51.8275 37.8387 51.9051 37.7948 51.9805 37.7502L51.9878 37.7458H51.9915L51.9973 37.7422H52.0017H52.0054H52.0098H52.0141H52.0185H52.0229H52.028H52.0324H52.0376H52.042H52.0471H52.0515H52.0573H52.0624L52.0683 37.7385L52.0793 37.7312L52.0902 37.7246C52.2785 37.6101 52.4574 37.4933 52.6266 37.3744L52.6369 37.3671L52.6471 37.3598L52.6573 37.3525L52.6669 37.3459H52.6712H52.6764L52.6808 37.3422H52.6852H52.6888H52.6932H52.6969H52.7013H52.7049H52.7093H52.7137H52.7181L52.7261 37.3356L52.7349 37.3291L52.7437 37.3225C52.8264 37.2603 52.9061 37.1982 52.9837 37.1353L51.5414 36.9423L51.6863 36.7719ZM53.0196 34.9346C52.9273 35.2723 52.7722 35.5896 52.5622 35.8697L54.0762 35.9889C54.1511 35.8862 54.2204 35.7795 54.284 35.6694L54.2884 35.6621V35.6577V35.6533V35.6497V35.6453V35.6416V35.6365V35.6328V35.6292V35.6255V35.6182C54.2883 35.6158 54.2883 35.6134 54.2884 35.6109L54.2928 35.6036C54.2928 35.6036 54.2928 35.5985 54.2928 35.5963L54.2972 35.589C54.3809 35.4256 54.4479 35.2541 54.497 35.0772V35.0735V35.0691V35.0655V35.0618L52.9464 35.0187L53.0196 34.9346ZM54.1808 32.9371L52.6595 33.0446C52.8504 33.3293 52.9836 33.6484 53.0518 33.9841L54.6053 33.9534C54.5921 33.8803 54.5752 33.813 54.5562 33.7436V33.7355V33.7275V33.7238V33.7202V33.7165V33.7129V33.7092V33.7056V33.7019V33.6939V33.6208V33.6171V33.6134V33.6091V33.6047V33.5996V33.5944V33.5893V33.5813C54.5565 33.5786 54.5565 33.5759 54.5562 33.5732V33.5652V33.5572C54.5559 33.5545 54.5559 33.5518 54.5562 33.5491V33.5411C54.4784 33.3438 54.3803 33.1552 54.2635 32.9781L54.1808 32.9371ZM51.9856 31.0289L50.629 31.2797C51.06 31.5284 51.4673 31.816 51.8458 32.1388L53.3027 31.9545L53.2003 31.8675L53.1952 31.8631L53.1901 31.8587L53.1849 31.8551L53.1805 31.8514V31.8478L53.1762 31.8441V31.8405L53.1718 31.8368H53.1674H53.163L53.1542 31.8302L53.1454 31.8229C52.7793 31.5296 52.3916 31.2642 51.9856 31.0289ZM48.1805 29.416L47.1071 29.786C47.8008 30.0053 48.4498 30.2407 49.0381 30.4893L50.266 30.1749C49.9777 30.0528 49.6762 29.9337 49.3638 29.8181L49.3477 29.8123L49.3323 29.8072L49.3169 29.8021H49.3089H49.3023H49.2957H49.2906H49.284H49.2789H49.2723H49.2657H49.2599H49.2533H49.2489H49.243H49.2386H49.2328H49.2291H49.224H49.2196H49.213H49.2086H49.2013L49.1867 29.7969L49.172 29.7918L49.1625 29.7882H49.1574H49.1479L49.1325 29.783L49.1172 29.7772C48.8308 29.6763 48.5362 29.5788 48.2332 29.4847L48.1805 29.416ZM43.1073 28.2411L42.4115 28.6995C43.2661 28.8399 44.0945 29.0037 44.8818 29.185L45.7775 28.7624C45.3545 28.6649 44.9204 28.5721 44.475 28.4838L44.4545 28.4794H44.434L44.3608 28.4648H44.3396L44.3191 28.4604H44.3089L44.2672 28.4524H44.2459L44.2255 28.448L44.1523 28.4341L44.1318 28.4305L44.1113 28.4261L44.0901 28.4224L44.0586 28.4166L44.0381 28.4122L44.0096 28.3968L43.9891 28.3932L43.9686 28.3888L43.9371 28.3829L43.9159 28.3793L43.8947 28.3756L43.8742 28.372H43.8537L43.8325 28.3683H43.8223H43.8018H43.7813L43.7608 28.3646L43.7396 28.361L43.7184 28.3573H43.7081L43.6869 28.3537L43.6664 28.35L43.6459 28.3464H43.6364H43.6262H43.6166H43.6071H43.5976H43.5881H43.5779L43.5581 28.3427H43.5391H43.5296H43.5208H43.5113H43.5032H43.4944H43.4871H43.4783H43.4703H43.4622H43.4527H43.4447H43.4352H43.4279H43.4191H43.4125H43.4037H43.4H43.3935H43.3854H43.3781H43.3635H43.3561H43.2778H43.2698H43.2559H43.2486H43.2339H43.2266H43.2178H43.2105H43.1966H43.1871H43.1813H43.171H43.1652H43.1527L43.133 28.3391H43.1169L43.1073 28.2411ZM37.208 27.6109L36.9556 28.1168C37.9003 28.168 38.8405 28.2433 39.7501 28.3405L40.2301 27.8529C40.0296 27.8309 39.8284 27.8112 39.625 27.7914H39.603H39.5818H39.5716H39.3996H39.3886H39.3769H39.3542H39.3315H39.3089C38.623 27.73 37.9242 27.6799 37.2124 27.6408L37.208 27.6109Z" fill="#FF922E"/>
<path d="M33.776 26.6648C36.8278 26.6571 39.8764 26.8599 42.9002 27.2717C45.691 27.6606 48.198 28.217 50.3508 28.9262C52.5036 29.6354 54.1932 30.4616 55.3742 31.3806C56.5962 32.3311 57.216 33.3437 57.216 34.3856C57.216 35.4274 56.5992 36.4393 55.3742 37.3898C54.1932 38.3088 52.5036 39.135 50.3508 39.8435C48.198 40.5519 45.691 41.1098 42.9002 41.4988C39.8763 41.9099 36.8277 42.1124 33.776 42.1049C30.7246 42.1124 27.6762 41.9099 24.6527 41.4988C21.8618 41.1098 19.3548 40.5527 17.202 39.8435C15.0492 39.1343 13.3589 38.3103 12.1823 37.3898C10.9602 36.4393 10.3405 35.4267 10.3405 34.3841C10.3405 33.3415 10.9602 32.3311 12.1823 31.3792C13.3626 30.4594 15.0529 29.6339 17.2057 28.9247C19.3585 28.2155 21.8654 27.6591 24.6563 27.2702C27.6798 26.8584 30.7282 26.6557 33.7797 26.6633M33.7797 26.5354C20.62 26.5354 9.95117 30.0492 9.95117 34.3841C9.95117 38.719 20.6164 42.235 33.776 42.235C46.9357 42.235 57.6053 38.7205 57.6053 34.3856C57.6053 30.0507 46.9401 26.5369 33.776 26.5369L33.7797 26.5354Z" fill="#F7FAF6"/>
<path d="M33.7722 27.1372C36.6372 27.1299 39.4993 27.3202 42.338 27.7067C44.9584 28.0723 47.3139 28.5943 49.3328 29.2604C51.3517 29.9264 52.941 30.7014 54.0489 31.5642C55.197 32.4576 55.7787 33.4074 55.7787 34.3856C55.7787 35.3639 55.1933 36.3136 54.0489 37.207C52.941 38.0705 51.3539 38.8454 49.3328 39.5115C47.3117 40.1776 44.9606 40.6996 42.338 41.0652C39.4993 41.4516 36.6372 41.6419 33.7722 41.6348C30.9087 41.6417 28.0482 41.4514 25.2108 41.0652C22.5905 40.6996 20.235 40.1768 18.2154 39.5115C16.1957 38.8462 14.6042 38.0705 13.4956 37.207C12.3482 36.3136 11.7665 35.3646 11.7665 34.3856C11.7665 33.4066 12.3482 32.4576 13.4956 31.5642C14.6042 30.7014 16.1906 29.9257 18.2117 29.2604C20.2328 28.595 22.5868 28.0715 25.2072 27.7067C28.0457 27.3202 30.9075 27.1299 33.7722 27.1372ZM33.7722 27.0092C21.4058 27.0092 11.3809 30.3117 11.3809 34.3856C11.3809 38.4595 21.4058 41.7627 33.7759 41.7627C46.146 41.7627 56.1717 38.4602 56.1717 34.3856C56.1717 30.311 46.1409 27.0078 33.7722 27.0078V27.0092Z" fill="#F7FAF6"/>
<path d="M44.7085 37.1645C44.4756 37.1338 44.2388 37.1751 44.0301 37.283H40.6802L40.2068 37.718C40.1021 37.8138 39.8255 37.8781 39.516 37.8781L40.1636 37.2866H39.6733L39.2014 37.7173C39.096 37.8131 38.8194 37.8774 38.5099 37.8774L39.1567 37.2866H38.6701L38.1989 37.7165C38.0935 37.8123 37.8169 37.8767 37.5074 37.8767L38.1535 37.2874H34.5409H32.0698C32.1605 37.1733 32.4737 37.0936 32.8315 37.0936H34.7033L37.5725 33.7655H32.5147C31.1975 35.1488 29.8804 36.7105 28.5633 38.1296C28.3437 38.3694 28.8801 38.6641 29.6404 38.6663C34.3038 38.6838 38.9665 38.6495 43.6299 38.6663C43.8962 38.6663 44.1311 38.6093 44.2006 38.5244L45.1153 37.4153C45.2024 37.31 45.0275 37.1967 44.7085 37.1645Z" fill="#FF922E"/>
<path d="M40.7207 30.1063V30.1026H35.5451C35.0607 30.1026 34.667 30.2321 34.667 30.3953H37.2413C37.1213 30.5021 36.8169 30.5746 36.4708 30.5775L35.4836 30.5877C35.0387 31.0638 34.5943 31.5407 34.1504 32.0183H39.0816L40.4785 30.3938H40.6146C40.84 30.3938 41.0398 30.3397 41.0646 30.2658C41.0895 30.1919 40.9344 30.1216 40.7207 30.1063Z" fill="url(#paint1_linear_57_5050)"/>
<path d="M44.8585 32.5643C44.8585 32.5497 44.8519 32.5358 44.8475 32.5212C44.5746 31.5173 41.9827 30.754 38.9204 30.754H30.0641C29.328 30.754 28.6738 30.9061 28.4191 31.1335L27.7225 31.6891H26.9498C26.4163 31.6891 25.9129 31.771 25.588 31.9085H29.9734L31.1185 31.9143C31.6886 31.918 32.0947 32.0883 32.0083 32.2653L30.9736 33.2004H30.4863L31.4727 32.2996H31.1632L30.1768 33.2048H29.5533L30.5412 32.304C28.9109 32.2938 27.5908 32.2828 25.9612 32.2726C25.5682 32.2726 25.2046 32.3413 25.0224 32.4554C24.9558 32.4941 24.8984 32.5467 24.8541 32.6096C24.7999 32.6937 25.0136 32.7727 25.2726 32.7617H25.2814C25.5639 32.7478 25.6853 32.6659 25.6941 32.6601H28.5318C28.5318 32.7332 28.3467 32.7961 28.1191 32.7961H26.6359C24.5811 34.8074 23.1418 36.2565 22.5439 36.7047C21.9461 37.1529 22.4561 37.3379 22.8908 37.4081C23.0908 37.4389 23.2929 37.4538 23.4952 37.4527H27.2388L29.7268 35.056H28.995C28.5962 35.056 28.2728 34.95 28.2728 34.8184H32.4525C34.2241 35.6395 35.9956 36.4693 37.7672 37.2911C39.4699 37.2911 41.172 37.2823 42.8747 37.2823L36.9652 34.6649L38.9182 34.6824C41.8452 34.6824 44.3638 33.9842 44.8029 33.0315C44.8725 32.8862 44.892 32.7219 44.8585 32.5643ZM29.8241 33.5265H29.2511L29.5306 33.272H30.1021L29.8241 33.5265ZM30.6187 33.5265H30.1841L30.4614 33.2735H30.8961L30.6187 33.5265ZM33.1799 33.5265C32.6223 33.5265 31.9417 33.5265 31.1383 33.5265L31.4171 33.275H33.4572L33.1799 33.5265ZM31.4925 33.2055L32.4525 32.3318C33.2808 32.3355 33.9679 32.3369 34.475 32.3377L33.5238 33.2048L31.4925 33.2055ZM34.1575 33.5287H33.6943L33.9731 33.275H34.437L34.1575 33.5287ZM34.0477 33.2055L34.999 32.3384H35.4629L34.5116 33.2048L34.0477 33.2055ZM36.7354 33.3751C36.0538 33.4811 35.3647 33.5322 34.6748 33.5279L34.9536 33.2735C35.4746 33.2823 35.921 33.2794 36.2707 33.2735C36.9235 33.2618 37.222 33.2399 37.5089 33.188C37.6258 33.168 37.7416 33.1419 37.8557 33.1097C37.4886 33.2263 37.1131 33.3148 36.7325 33.3744L36.7354 33.3751ZM38.1799 32.8824C38.0621 33.0286 37.6011 33.1017 37.3545 33.1375C37.023 33.188 36.7332 33.1945 36.1676 33.2055C35.7212 33.2143 35.3341 33.2114 35.0275 33.2055L35.9744 32.3413C36.1024 32.334 37.1225 32.2828 37.7672 32.5087C37.8513 32.538 38.3204 32.7025 38.1769 32.8816L38.1799 32.8824Z" fill="#FF922E"/>
<path d="M34.4709 32.3376C33.9638 32.3376 33.2767 32.3376 32.4483 32.3318L31.4824 33.2055H33.5218L34.4709 32.3376ZM31.8161 33.1279L32.6108 32.4094L34.1394 32.4137L33.3572 33.1279H31.8161Z" fill="white"/>
<path d="M30.1816 33.526L30.6141 33.5252L30.8936 33.2728H30.4582L30.1816 33.526Z" fill="white"/>
<path d="M29.2461 33.5275H29.819L30.0971 33.2736H29.5256L29.2461 33.5275ZM29.6895 33.3497H29.7627L29.6529 33.4499H29.5798L29.6895 33.3497Z" fill="white"/>
<path d="M45.0861 32.5643C45.0832 32.5492 45.0796 32.5344 45.0751 32.5197C44.9383 32.016 44.23 31.5502 43.0819 31.2095C41.9337 30.8688 40.4593 30.6824 38.9175 30.6824H30.059C29.2299 30.6824 28.4821 30.8549 28.1967 31.1108L27.8499 31.3872L27.5615 31.6138H26.9447C26.3432 31.6138 25.7644 31.7074 25.3978 31.8646L25.1051 31.9882H29.9646L31.1047 31.994C31.2788 31.991 31.4522 32.0184 31.6169 32.0752C31.7252 32.1176 31.7815 32.171 31.7779 32.2251H30.9942L30.9386 32.2762L30.0078 33.1273H29.8812L30.2419 32.7983L30.7542 32.3296L30.8646 32.2287H30.539L28.2391 32.2134L25.9605 32.1987H25.9349C25.4614 32.1987 25.0297 32.2843 24.8095 32.4232C24.7335 32.4666 24.668 32.5263 24.6177 32.5979C24.579 32.6586 24.6243 32.7208 24.7429 32.769C24.8945 32.8217 25.0544 32.8465 25.2148 32.8421C25.2412 32.8421 25.269 32.8421 25.2953 32.8421H25.3092C25.4817 32.8384 25.6521 32.8043 25.8127 32.7412H26.4471L26.412 32.7756C26.0139 33.1656 25.6393 33.5336 25.288 33.8796C23.8465 35.2965 22.8052 36.3201 22.3281 36.6784C21.6322 37.1997 22.3164 37.4059 22.7855 37.4826C23.0196 37.5182 23.2562 37.5356 23.493 37.5345H27.3984L27.4525 37.4826L29.9405 35.086L30.0458 34.9844H28.9877C28.8401 34.9914 28.693 34.9626 28.5589 34.9003H32.3245C33.1872 35.3009 34.0631 35.7089 34.9105 36.1037C35.7446 36.4927 36.6052 36.8933 37.454 37.2874H37.7401C35.9751 36.4686 34.2102 35.6416 32.4445 34.8235H28.2655C28.2655 34.9551 28.5889 35.0611 28.9877 35.0611H29.7195L27.2315 37.4578H23.4901C23.2878 37.459 23.0857 37.4441 22.8857 37.4132C22.451 37.3401 21.9344 37.1624 22.5389 36.7098C23.1433 36.2573 24.576 34.8125 26.6308 32.8012H28.1111C28.3387 32.8012 28.5238 32.7398 28.5238 32.6652H25.6861C25.6773 32.6711 25.5558 32.7529 25.2734 32.7668H25.2156C24.9792 32.7668 24.7963 32.6937 24.8497 32.614C24.894 32.5511 24.9515 32.4985 25.018 32.4598C25.1973 32.3472 25.5514 32.277 25.9363 32.277H25.9568C27.5864 32.2872 28.9065 32.2982 30.5368 32.3084L29.549 33.2092H30.1724L31.1588 32.3084H31.4683L30.4819 33.2092H30.9693L32.0032 32.2719C32.0896 32.0949 31.6835 31.9246 31.1134 31.9209L29.9683 31.9151H25.5829C25.9078 31.7761 26.4112 31.6957 26.9447 31.6957H27.7174L28.414 31.1401C28.6658 30.9127 29.3229 30.7606 30.059 30.7606H38.9175C41.9776 30.7606 44.5695 31.5239 44.8446 32.5278C44.849 32.5424 44.8527 32.5563 44.8556 32.5709C44.8877 32.7282 44.8672 32.8915 44.7971 33.0359C44.358 33.9864 41.8386 34.6868 38.9124 34.6868L36.9593 34.6692L42.8689 37.2867H43.1616L43.0584 37.2414L39.6192 35.7184L37.4342 34.7504L38.9065 34.7636H38.9124C40.3868 34.7636 41.8167 34.591 42.937 34.2774C44.0573 33.9637 44.8066 33.525 45.0268 33.0469C45.0991 32.8969 45.1198 32.7273 45.0861 32.5643ZM31.7757 32.2528L31.671 32.345L31.6871 32.3296L31.7757 32.2492V32.2528Z" fill="white"/>
<path d="M31.1328 33.5244H31.7746H33.1744L33.4517 33.2712H31.4116L31.1328 33.5244ZM31.5719 33.3495H33.1158L33.0075 33.4483H31.4636L31.5719 33.3495Z" fill="white"/>
<path d="M37.8508 33.109C37.7367 33.1412 37.6209 33.1673 37.504 33.1873C37.2113 33.2393 36.9186 33.2605 36.2659 33.2729C36.0749 33.2729 35.8546 33.278 35.6073 33.278C35.4031 33.278 35.1821 33.278 34.9487 33.2729L34.6699 33.5276C35.3598 33.5318 36.0488 33.4807 36.7305 33.3746C37.1101 33.3146 37.4847 33.2258 37.8508 33.109ZM35.0116 33.4456L35.1134 33.3519C35.2802 33.3519 35.4478 33.3556 35.6131 33.3556C35.8327 33.3556 36.061 33.3556 36.282 33.3498H36.3471C35.9041 33.4068 35.4582 33.4387 35.0116 33.4456Z" fill="white"/>
<path d="M36.1615 33.2055C36.7272 33.1945 37.017 33.1879 37.3484 33.1374C37.595 33.0994 38.056 33.0291 38.1738 32.8821C38.3202 32.7028 37.8482 32.5381 37.7611 32.5081C37.3353 32.3618 36.7447 32.3303 36.3562 32.3303C36.1579 32.3303 36.0115 32.3376 35.9684 32.3406L35.0215 33.2055C35.1891 33.2055 35.38 33.2106 35.5915 33.2106C35.7679 33.2106 35.9618 33.2091 36.1615 33.2055ZM36.1396 32.4108C36.1989 32.4108 36.2728 32.4108 36.3591 32.4108C36.725 32.4108 37.2321 32.4379 37.5936 32.5645C37.7341 32.6135 38.0502 32.7416 37.9507 32.866C37.8614 32.9786 37.4809 33.0365 37.2533 33.0708C36.9665 33.1148 36.7228 33.1206 36.1506 33.1323C35.9662 33.136 35.7788 33.1374 35.5944 33.1374H35.3522L36.1396 32.4108Z" fill="white"/>
<path d="M35.4543 32.3384H34.9903L34.0391 33.2063H34.503L35.4543 32.3384Z" fill="white"/>
<path d="M34.1507 33.5281L34.4302 33.2728H33.9663L33.6875 33.5267H34.1507V33.5281Z" fill="white"/>
<path d="M23.7043 26.6447C27.0564 26.1866 30.4361 25.9612 33.8192 25.9701V23.5129H33.7724C29.1624 23.5129 24.7785 23.8239 20.7949 24.3866L23.7043 26.6447Z" fill="#F7FAF6"/>
<path d="M49.8064 24.8793L46.373 26.9185C49.4281 27.477 52.0741 28.2206 54.2364 29.1279L59.7932 27.6927C57.0777 26.5492 53.6817 25.59 49.8064 24.8793Z" fill="white"/>
<path d="M1.64844 37.1873V42.2043C2.68605 43.6512 4.60176 44.987 7.20311 46.1466V40.8093L1.7882 36.995C1.74137 37.0586 1.69454 37.1229 1.64844 37.1873Z" fill="#EDE8E8"/>
<path d="M19.3633 49.4806C23.2415 50.1014 27.5449 50.4801 32.0912 50.5547V45.2452L19.3633 44.1704V49.4806Z" fill="#EDE8E8"/>
<path d="M48.5273 49.4242C52.5688 48.7574 56.1375 47.826 59.022 46.6986V41.751L48.5273 44.3502V49.4242Z" fill="#EDE8E8"/>
<path d="M66.7812 39.6958C66.7812 39.6841 66.7812 39.6732 66.7812 39.6622V34.0654L66.3524 34.069L65.9023 36.8868V42.1963C66.4731 41.3935 66.7812 40.5564 66.7812 39.6958Z" fill="#EDE8E8"/>
<path d="M59.7437 34.3922C59.7437 35.0568 59.5125 35.7178 59.0566 36.3568L65.9065 36.8876C66.4802 36.0833 66.7846 35.2469 66.7846 34.3864C66.7777 33.7505 66.6181 33.1257 66.3192 32.5644L59.3779 32.9512C59.6136 33.3953 59.7391 33.8895 59.7437 34.3922Z" fill="white"/>
<path d="M59.0204 41.7509L53.7629 40.2097C51.4315 41.0717 48.6516 41.7597 45.5 42.2525L48.5258 44.3501C52.5372 43.7206 56.1008 42.8323 59.0204 41.7509Z" fill="white"/>
<path d="M19.3633 44.172C23.2415 44.794 27.5471 45.1724 32.0956 45.2477L32.4615 42.9193C29.1161 42.8726 25.7783 42.5884 22.4732 42.069L19.3633 44.172Z" fill="white"/>
<path d="M1.64844 36.8941C2.67873 38.3315 4.57542 39.6577 7.14457 40.8115L12.7527 39.4837C10.7104 38.5479 9.28787 37.5053 8.52685 36.3859L1.64844 36.8941Z" fill="white"/>
<path d="M1.89453 31.5545L8.85562 32.1987C9.79445 31.0947 11.3816 30.0784 13.5717 29.1769L7.83118 27.6613C5.11201 28.7974 3.06825 30.1171 1.89453 31.5545Z" fill="white"/>
<path d="M23.7043 26.6447C27.0564 26.1866 30.4361 25.9612 33.8192 25.9701V23.5129H33.7724C29.1624 23.5129 24.7785 23.8239 20.7949 24.3866L23.7043 26.6447Z" fill="white"/>
<path d="M69.3456 25.5323L64.6515 25.5717C58.8802 22.4067 48.3592 20.2893 36.333 20.2893C23.7082 20.2893 12.7408 22.6245 7.18832 26.0543L3.32617 26.0865V31.1313C3.32617 31.1422 3.32617 31.1532 3.32617 31.1649C3.32617 37.1704 18.1074 42.0354 36.3366 42.0354C54.5659 42.0354 69.3456 37.1704 69.3456 31.1627C69.3456 31.151 69.3456 31.14 69.3456 31.1291V25.5323Z" fill="url(#paint2_linear_57_5050)"/>
<path d="M36.3352 36.7259C54.5656 36.7259 69.3442 31.8577 69.3442 25.8525C69.3442 19.8472 54.5656 14.9791 36.3352 14.9791C18.1048 14.9791 3.32617 19.8472 3.32617 25.8525C3.32617 31.8577 18.1048 36.7259 36.3352 36.7259Z" fill="#FF922E"/>
<path d="M36.3377 32.533C47.5386 32.533 56.6187 29.542 56.6187 25.8526C56.6187 22.1631 47.5386 19.1722 36.3377 19.1722C25.1368 19.1722 16.0566 22.1631 16.0566 25.8526C16.0566 29.542 25.1368 32.533 36.3377 32.533Z" fill="white"/>
<path d="M36.3565 18.9834H35.4162C34.6844 18.9937 33.9639 19.0166 33.2546 19.0522L33.4844 19.5589C34.4283 19.5128 35.3942 19.4894 36.3565 19.4894V18.9776V18.9834ZM30.2223 19.2854L30.1491 19.2934H30.1271H30.1125H30.1037H30.0905H30.0576H30.0452H30.0342H30.0218H30.0181H30.0049H29.9713H29.9625H29.8586H29.8505H29.8147H29.8052H29.7796H29.7708H29.7415H29.7313H29.721H29.7078H29.6874H29.6661H29.6537H29.6427H29.6317H29.6215H29.6105H29.5952H29.5834H29.5725H29.5615H29.5388H29.5161H29.4934H29.4708H29.4481C28.7227 19.3768 28.0168 19.4743 27.3304 19.5859L28.0051 20.048C28.8678 19.9113 29.7693 19.795 30.6833 19.7029L30.2259 19.2123L30.2223 19.2854ZM24.6332 20.1708C23.8041 20.3572 23.0182 20.562 22.2806 20.7842L22.2631 20.7901L22.2462 20.7952H22.2375H22.2301H22.2221H22.2155H22.2082L23.2648 21.171C23.9688 20.9568 24.7283 20.7586 25.5171 20.581L24.639 20.1569L24.6332 20.1708ZM20.0803 21.56C19.4765 21.8031 18.8887 22.0843 18.3204 22.4015L19.6654 22.6589C20.1916 22.3649 20.7356 22.1038 21.2942 21.8773L20.0825 21.5585L20.0803 21.56ZM16.9616 23.3256C16.6762 23.5592 16.4153 23.8211 16.183 24.1072L16.1772 24.1153L16.1713 24.1226L16.1654 24.1299L16.1596 24.1372L16.1545 24.1445L16.1486 24.1518L16.1428 24.1584V24.1621V24.1657V24.1701V24.1752L16.1376 24.1833L16.1281 24.1964L17.6443 24.3119C17.8885 23.9743 18.1761 23.6702 18.4997 23.4075L17.0531 23.2189L16.9616 23.3256ZM15.5661 25.3158C15.5443 25.4075 15.5281 25.5006 15.5179 25.5943C15.5175 25.5971 15.5175 25.5998 15.5179 25.6024V25.6104V25.6177V25.6229V25.6272V25.6316V25.6426V25.7457V25.7647V25.7727V25.7764V25.7801V25.7881V25.7918V25.7954V25.7991V25.8378V25.8459V25.8495V25.8532V25.8605V25.8641V25.8678V25.8714V25.8751V25.8788V25.8861V25.8934C15.5182 25.8973 15.5182 25.9012 15.5179 25.9051V25.9124C15.5217 25.9964 15.5302 26.0802 15.5435 26.1632V26.1668C15.5435 26.1668 15.5435 26.1719 15.5435 26.1741V26.1778V26.1844V26.2012V26.2085C15.5479 26.2319 15.5522 26.2546 15.5574 26.278L17.1101 26.2421C17.0781 26.0941 17.0619 25.9432 17.0618 25.7918C17.0621 25.6239 17.0817 25.4565 17.1204 25.2931L15.5691 25.2536L15.5661 25.3158ZM17.5214 27.2409L16.0023 27.3527C16.1539 27.5743 16.3253 27.7815 16.5145 27.972L16.5218 27.9793L16.5291 27.9866L16.5364 27.9947V27.9983V28.002L16.5401 28.0056L16.5438 28.0093V28.0129L16.5474 28.0166L16.5511 28.0202H16.5547V28.0239L16.5613 28.0305L16.5686 28.0371L16.576 28.0444L16.5833 28.0517L16.5986 28.067C16.663 28.1263 16.7296 28.1855 16.7991 28.244L18.2502 28.059C17.9325 27.7957 17.6519 27.4908 17.416 27.1524L17.5214 27.2409ZM19.5922 29.0029L18.2414 29.2573L18.327 29.3063L18.3387 29.3129L18.3504 29.3187H18.3563H18.3614H18.3665H18.3709H18.376H18.3812H18.3848H18.3885H18.3929H18.3973L18.4046 29.3224L18.4156 29.3282L18.4265 29.3341C18.7154 29.492 19.0224 29.6461 19.3478 29.7962L19.3617 29.8027L19.3749 29.8086L19.3829 29.8122H19.3866L19.3946 29.8159H19.3983H19.4049L19.4166 29.821H19.4224H19.4268H19.4312H19.4356H19.44H19.4437H19.4495H19.4539H19.4605H19.4656H19.4715L19.4846 29.8269L19.4985 29.8327L19.5124 29.8386C19.6383 29.8941 19.7656 29.9497 19.8959 30.0038L21.202 29.7859C20.6495 29.558 20.1118 29.2954 19.5922 29V29.0029ZM23.15 30.4871L22.0845 30.8607L22.3611 30.9448L22.3787 30.9499L22.3963 30.955H22.405H22.4138H22.4226H22.4306H22.4387L22.4548 30.9594H22.4628H22.4709H22.4789H22.4863H22.4943H22.5009H22.5089H22.5163H22.5243H22.5316H22.5382H22.5455H22.5514H22.558H22.5638H22.5704H22.5763H22.5828H22.5865H22.5916H22.596H22.6011H22.6048H22.6114H22.6165H22.6202H22.6268H22.6319H22.6392H22.6436H22.6487H22.6538H22.6575H22.6626H22.667H22.6721H22.6758H22.6809H22.686H22.6897H22.6941H22.6999H22.7043H22.708H22.7124H22.7182H22.7226H22.7263H22.7329H22.7372H22.7409H22.7475H22.7519H22.7592H22.7643H22.7716H22.779H22.7826H22.787H22.7951H22.8002H22.8082H22.8133H22.8214H22.8265H22.836L22.8521 30.9638L22.869 30.9682H22.8785H22.8843H22.8946H22.8997H22.9099L22.9268 30.9726L22.9429 30.9769H22.9524H22.9582H22.9677H22.9736H22.9831L22.9992 30.9813L23.016 30.9857H23.0263H23.0314H23.0431H23.049H23.0599L23.0775 30.9908L23.0943 30.9952L23.1119 30.9996L23.1419 31.0077L23.1595 31.0128L23.177 31.0179L23.1946 31.0223L23.2253 31.0303L23.2436 31.0354L23.2612 31.0398L23.2787 31.0442L23.3087 31.0522L23.3263 31.0566L23.3439 31.061L23.3614 31.0661L23.379 31.0705H23.3914L23.4097 31.0749L23.4273 31.0793L23.4448 31.0837H23.4558H23.4617H23.4726H23.4785H23.4895L23.507 31.0881L23.5239 31.0925H23.5341H23.5429H23.5524H23.5583H23.5692L23.5861 31.0961L23.6029 31.1005H23.6131H23.6219H23.6307H23.6358H23.6453H23.6549H23.6636L23.6797 31.1049H23.6885H23.6936H23.7024H23.7068H23.7141H23.8875H23.8919H23.8963H23.9036H23.9117H23.9176H23.9263H23.9329H23.9373H23.9417H23.9497H23.9534H23.9578H23.9622H23.9688H23.9768H23.9819H23.9878H23.9922H23.9966H24.0032H24.0076H24.0119H24.0185H24.0229H24.0339H24.039H24.0449H24.0485H24.0544H24.0588H24.0646H24.0719H24.0785H24.0859H24.0895H24.0946H24.1071H24.1144H24.1202H24.1283H24.1341H24.1385H24.1444H24.1524H24.1583H24.1663H24.1722H24.1802H24.1876H24.1956H24.2044H24.2124H24.2205H24.2285H24.2373L24.1283 31.1386L24.2542 31.1049L24.1663 31.1386L24.2044 31.1752L24.2205 31.2117H24.1876L24.1956 31.2483H24.3171L25.3393 30.7145C24.5527 30.5353 24.1634 30.5622 23.4617 30.3458L23.15 30.4871ZM27.8697 31.5633L27.1848 32.0232C27.3277 32.0466 27.4716 32.0693 27.6165 32.0912H27.6377H27.6575H27.6765H27.686H27.6985H27.7073H27.7438H27.7497H27.7812H27.7899H27.7973H27.8068H27.8192H27.8287H27.8368H27.8463H27.8587H27.8682H27.8778H27.8887L27.9092 32.0948H27.9297H27.9509C28.6314 32.1924 29.33 32.2789 30.0466 32.3544L30.5157 31.8653C29.6039 31.771 28.7054 31.6525 27.8456 31.5136L27.8697 31.5633ZM33.3395 32.1321L33.098 32.6381H33.2714H33.2934H33.3512H33.3754L33.4485 32.6417C34.3481 32.6827 35.2645 32.7046 36.1977 32.7075L36.2094 32.1957C35.2472 32.1957 34.282 32.1672 33.3395 32.119V32.1321ZM41.8929 31.9435C40.9767 32.0342 40.032 32.1022 39.083 32.146L39.3025 32.6534L39.5952 32.6395H39.6193H39.6427H39.6932H39.7079H40.1572H40.2186H40.2413H40.264H40.2867H40.3101C40.9965 32.5967 41.6706 32.5423 42.3326 32.4765L41.887 31.9852L41.8929 31.9435ZM47.0817 31.1393C46.2855 31.3147 45.4433 31.4719 44.5784 31.6064L45.2421 32.07C45.7519 31.991 46.2499 31.9055 46.7363 31.8134L46.8095 31.7987L46.8292 31.7951H46.849H46.868H46.8804H46.8877H46.8995H46.9053H46.917H46.9353H46.9536H46.9638H46.9748H46.9843H46.9895H47.0107H47.018H47.0268H47.0319H47.0429H47.0473H47.0546H47.0678H47.0751H47.0795H47.0846H47.0926H47.1014H47.1065H47.1131H47.1226H47.1278H47.1373H47.1446H47.1512H47.1592H47.1658H47.1739H47.1804H47.1885H47.1958H47.2039H47.2119H47.22H47.2287H47.2368H47.2456H47.2529H47.2617H47.269H47.2778H47.2858H47.2946L47.3129 31.7914H47.3224H47.3319H47.3422H47.3517H47.3612H47.3707H47.3809L47.4007 31.787L47.4197 31.7834L47.4395 31.7797L47.46 31.7753C47.6034 31.7457 47.7456 31.7149 47.8866 31.6832L47.0839 31.1378L47.0817 31.1393ZM51.3258 29.8656C50.7206 30.1105 50.0547 30.3423 49.3501 30.5543L50.3979 30.9331C51.1648 30.7035 51.879 30.4549 52.5354 30.1895L51.328 29.8642L51.3258 29.8656ZM54.2491 28.2389C53.8491 28.5587 53.4218 28.843 52.9722 29.0884L54.3113 29.3494C54.3903 29.3056 54.4679 29.2617 54.544 29.2171L54.5513 29.2127H54.555L54.5616 29.2091H54.5659H54.5703H54.5747H54.5798H54.5842H54.5894H54.5945H54.5996H54.6047H54.6098H54.615H54.6201L54.6259 29.2054L54.694 29.1279L54.7057 29.1213C54.8945 29.0063 55.0733 28.8896 55.2421 28.7711L55.2523 28.7638L55.2618 28.7565L55.2713 28.7492L55.2809 28.7419L55.286 28.7382H55.2904H55.2948H55.2992L55.3035 28.7346H55.3079H55.3123H55.316H55.3204H55.3248H55.3284H55.3328H55.3365L55.3445 28.728L55.3533 28.7214L55.3621 28.7148C55.4448 28.6527 55.5253 28.5905 55.6021 28.5276L54.1598 28.3346L54.2491 28.2389ZM55.5823 26.4015C55.4901 26.7391 55.3352 27.0562 55.1257 27.3366L56.639 27.4558C56.7141 27.3532 56.7835 27.2466 56.8468 27.1363L56.8512 27.129V27.1246V27.1202V27.1166V27.1114V27.1078V27.1041V27.0968C56.8514 27.0947 56.8514 27.0924 56.8512 27.0902V27.0829V27.0756L56.8548 27.0683C56.9388 26.9037 57.0059 26.731 57.0553 26.5529V26.5492V26.5448V26.5412V26.5368V26.5331V26.5295L55.5048 26.4863L55.5823 26.4015ZM56.7429 24.4041L55.2209 24.5115C55.4117 24.7962 55.5449 25.1153 55.6131 25.451L57.1658 25.4189C57.1527 25.3458 57.1366 25.2785 57.1168 25.209V25.201V25.193V25.1893V25.1856V25.182V25.1783V25.1484V25.1096V25.106V25.1016V25.0972V25.0921V25.0869V25.0818V25.0738C57.1165 25.0711 57.1165 25.0684 57.1168 25.0657V25.0577V25.0497C57.1168 25.0497 57.1168 25.0445 57.1168 25.0416C57.1165 25.039 57.1165 25.0363 57.1168 25.0336C57.0384 24.8366 56.9403 24.648 56.8241 24.4706L56.7429 24.4041ZM54.5476 22.4936L53.191 22.7444C53.6221 22.9929 54.0294 23.2805 54.4079 23.6035L55.8648 23.4251L55.7623 23.3381L55.7572 23.3337L55.7514 23.3293L55.747 23.3256H55.7433H55.7397H55.7353L55.7316 23.322H55.7272H55.7236H55.7192L55.7148 23.3183L55.706 23.3118L55.6965 23.3044C55.3549 23.036 54.995 22.7918 54.6194 22.5733L54.5476 22.4936ZM50.7426 20.8807L49.6684 21.2514C50.3621 21.4708 51.0119 21.7062 51.5995 21.9548L52.8281 21.6404C52.5392 21.5181 52.2383 21.3991 51.9251 21.2836L51.909 21.2777L51.8943 21.2726L51.8797 21.2675H51.8724H51.8658H51.8585H51.8526H51.8453H51.8402H51.8336H51.8278H51.8219H51.816H51.8109H51.8043H51.7985H51.7948H51.7897H51.7853H51.7787H51.7743H51.767L51.7531 21.2624L51.7385 21.2573H51.7282H51.7231H51.7129L51.6975 21.2522L51.6821 21.2463C51.3962 21.1454 51.1016 21.0479 50.7982 20.9539L50.7426 20.8807ZM45.6694 19.7051L44.9735 20.1642C45.8289 20.3046 46.6602 20.4684 47.4439 20.6497L48.3395 20.2308C47.9166 20.1333 47.4824 20.0404 47.037 19.9522L47.0165 19.9478L46.996 19.9442L46.9229 19.9295L46.9024 19.9259L46.8812 19.9215H46.8709L46.8285 19.9134L46.808 19.9098L46.7875 19.9054L46.7143 19.8915H46.6931L46.6719 19.8871L46.6507 19.8835L46.6192 19.8776L46.598 19.8732L46.5768 19.8696H46.5555H46.5343L46.5021 19.8637H46.4816L46.4611 19.8601L46.4407 19.8564L46.4194 19.8528H46.3982H46.388L46.3675 19.8491L46.3477 19.8455H46.3272L46.306 19.8418H46.2855H46.2753L46.2548 19.8381L46.2336 19.8345H46.2131H46.2028H46.1933H46.1831H46.1728H46.1633H46.1538H46.1443L46.1253 19.8308H46.1055H46.0953H46.0865H46.077H46.0689H46.0594H46.0514H46.0419H46.0345H46.0258H46.017H46.0089H46.0001H45.9928H45.984H45.9775H45.9687H45.9614H45.9526H45.9489H45.9423H45.9277H45.9204H45.9057H45.8977H45.8845H45.8765H45.8618H45.8545H45.8457H45.8384H45.7667H45.7565H45.7455H45.7353H45.7287H45.7162L45.6965 19.8272H45.6804L45.6694 19.7051ZM39.7708 19.0756L39.5176 19.5815C40.4623 19.6327 41.4026 19.708 42.3121 19.8052L42.7922 19.3176C42.5917 19.2956 42.3902 19.2752 42.1878 19.2562H42.1665H42.146H42.1358H41.9616H41.9514H41.939H41.9163H41.8936H41.8702C41.1872 19.1947 40.4886 19.1446 39.7745 19.1055L39.7708 19.0756Z" fill="#FF922E"/>
<path d="M36.3332 18.1317C39.3847 18.1241 42.4331 18.3268 45.4566 18.7386C48.2474 19.1275 50.7544 19.6839 52.9072 20.3931C55.06 21.1023 56.7503 21.9285 57.9306 22.8475C59.1526 23.798 59.7724 24.8106 59.7724 25.8525C59.7724 26.8944 59.1526 27.9062 57.9306 28.8582C56.7503 29.7772 55.06 30.6034 52.9072 31.3119C50.7544 32.0203 48.2474 32.5782 45.4566 32.9671C42.433 33.3783 39.3846 33.5808 36.3332 33.5732C33.2815 33.5808 30.2329 33.3783 27.209 32.9671C24.4182 32.5782 21.9112 32.0211 19.7584 31.3119C17.6056 30.6027 15.916 29.7765 14.735 28.8582C13.513 27.9077 12.8932 26.8951 12.8932 25.8525C12.8932 24.8099 13.513 23.7995 14.735 22.8475C15.916 21.9278 17.6056 21.1023 19.7584 20.3931C21.9112 19.6839 24.4182 19.1275 27.209 18.7386C30.2328 18.3268 33.2814 18.1241 36.3332 18.1317ZM36.3332 18.0038C23.1727 18.0038 12.5039 21.5176 12.5039 25.8525C12.5039 30.1874 23.1727 33.7019 36.3332 33.7019C49.4936 33.7019 60.1617 30.1874 60.1617 25.8525C60.1617 21.5176 49.4958 18.0038 36.3332 18.0038Z" fill="#F7FAF6"/>
<path d="M36.3399 18.6041C39.2034 18.5971 42.0639 18.7874 44.9013 19.1736C47.5217 19.5392 49.8771 20.0612 51.8968 20.7273C53.9164 21.3934 55.5043 22.1684 56.6129 23.0311C57.7602 23.9245 58.342 24.8743 58.342 25.8525C58.342 26.8308 57.7566 27.7805 56.6129 28.674C55.5043 29.5374 53.9178 30.3124 51.8968 30.9785C49.8757 31.6446 47.5217 32.1666 44.9013 32.5322C42.0639 32.918 39.2033 33.1084 36.3399 33.1017C33.4749 33.1085 30.6129 32.9182 27.7741 32.5322C25.1537 32.1666 22.7982 31.6438 20.7793 30.9785C18.7604 30.3132 17.1711 29.5374 16.0618 28.674C14.9144 27.7805 14.3326 26.8315 14.3326 25.8525C14.3326 24.8735 14.918 23.9245 16.0618 23.0311C17.1704 22.1684 18.7575 21.3926 20.7786 20.7273C22.7997 20.062 25.153 19.5385 27.7733 19.1736C30.6121 18.7872 33.4741 18.5969 36.3391 18.6041M36.3391 18.4754C23.9727 18.4754 13.9434 21.7787 13.9434 25.8525C13.9434 29.9264 23.9683 33.2297 36.3391 33.2297C48.71 33.2297 58.7305 29.9271 58.7305 25.8525C58.7305 21.7779 48.7056 18.4754 36.3391 18.4754Z" fill="#F7FAF6"/>
<path d="M37.0341 23.8046C36.5263 23.8046 35.8399 23.8046 35.0108 23.7987L34.0449 24.6724H36.0843L37.0341 23.8046ZM34.3786 24.5956L35.1733 23.877L36.7019 23.8814L35.9204 24.5956H34.3786Z" fill="white"/>
<path d="M32.7441 24.9929L33.1766 24.9921L33.4561 24.7397H33.0215L32.7441 24.9929Z" fill="white"/>
<path d="M31.8086 24.9945H32.3815L32.6596 24.7406H32.0881L31.8086 24.9945ZM32.252 24.8167H32.3252L32.2147 24.917H32.1415L32.252 24.8167Z" fill="white"/>
<path d="M33.6934 24.9915H34.3351H35.7349L36.013 24.7413H33.9729L33.6934 24.9915ZM34.1361 24.8166H35.68L35.571 24.9154H34.027L34.1361 24.8166Z" fill="white"/>
<path d="M40.414 24.576C40.2998 24.608 40.1841 24.6342 40.0672 24.6543C39.7745 24.7062 39.4818 24.7275 38.8284 24.7399C38.6374 24.7399 38.4171 24.745 38.1698 24.745C37.9664 24.745 37.7454 24.745 37.5112 24.7399L37.2324 24.9945C37.9222 24.9988 38.6113 24.9476 39.293 24.8416C39.6728 24.7811 40.0475 24.6923 40.414 24.576ZM37.5734 24.9126L37.6751 24.8189C37.842 24.8189 38.0095 24.8226 38.1749 24.8226C38.3944 24.8226 38.6227 24.8226 38.8437 24.8167H38.9096C38.4664 24.8737 38.0202 24.9057 37.5734 24.9126Z" fill="white"/>
<path d="M38.7214 24.6724C39.2877 24.6607 39.5768 24.6541 39.9082 24.6044C40.1548 24.5663 40.6158 24.4961 40.7337 24.349C40.88 24.1697 40.408 24.0051 40.3209 23.9751C39.8951 23.8287 39.3046 23.7972 38.9167 23.7972C38.7177 23.7972 38.5721 23.8046 38.5282 23.8075L37.582 24.6724C37.7489 24.6724 37.9399 24.6775 38.1513 24.6775C38.3277 24.6775 38.5209 24.6761 38.7214 24.6724ZM38.6994 23.8777C38.7587 23.8777 38.8326 23.8741 38.9189 23.8741C39.2848 23.8741 39.7912 23.9012 40.1534 24.0277C40.2939 24.0768 40.61 24.2048 40.5105 24.3292C40.4205 24.4419 40.04 24.4997 39.8124 24.5341C39.5263 24.578 39.2826 24.5839 38.7097 24.5956C38.5253 24.5956 38.3387 24.6007 38.1535 24.6007H37.9113L38.6994 23.8777Z" fill="white"/>
<path d="M38.0168 23.8054H37.5528L36.6016 24.6732H37.0662L38.0168 23.8054Z" fill="white"/>
<path d="M36.7132 24.9952L36.9935 24.7413H36.5288L36.25 24.9952H36.7132Z" fill="white"/>
<path d="M26.2661 18.1132C29.6184 17.6551 32.9983 17.4297 36.3817 17.4386V14.9799H36.3349C31.7249 14.9799 27.341 15.2909 23.3574 15.8536L26.2661 18.1132Z" fill="#F7FAF6"/>
<path d="M52.3696 16.3463L48.9355 18.3854C51.9906 18.9432 54.6366 19.6875 56.7989 20.5956L62.3557 19.1604C59.6402 18.0147 56.2442 17.0569 52.3696 16.3463Z" fill="white"/>
<path d="M4.21094 28.6542V33.6712C5.24855 35.1181 7.16426 36.4539 9.76487 37.6135V32.2762L4.35509 28.4597C4.30387 28.5255 4.25704 28.5899 4.21094 28.6542Z" fill="#EDE8E8"/>
<path d="M21.9258 40.9475C25.804 41.5683 30.1082 41.9463 34.6537 42.0216V36.7121L21.9258 35.6351V40.9475Z" fill="#EDE8E8"/>
<path d="M51.0918 40.8912C55.1332 40.2244 58.7019 39.2929 61.5865 38.1655V33.218L51.0918 35.8171V40.8912Z" fill="#EDE8E8"/>
<path d="M69.3456 31.1626C69.3456 31.1509 69.3456 31.14 69.3456 31.129V25.5322L68.9175 25.5358L68.4668 28.3536V33.6609C69.0405 32.8603 69.3456 32.0232 69.3456 31.1626Z" fill="#EDE8E8"/>
<path d="M62.3062 25.8585C62.3062 26.5231 62.075 27.184 61.6191 27.823L68.469 28.3538C69.0427 27.5496 69.3471 26.7132 69.3471 25.8526C69.3407 25.2169 69.1817 24.5921 68.8832 24.0306L61.9404 24.4181C62.1761 24.862 62.3016 25.356 62.3062 25.8585Z" fill="white"/>
<path d="M61.5829 33.2179L56.3254 31.676C53.994 32.5387 51.2141 33.2267 48.0625 33.7195L51.0883 35.8171C55.0997 35.1876 58.664 34.2993 61.5829 33.2179Z" fill="white"/>
<path d="M21.9258 35.6368C25.804 36.2588 30.1096 36.6371 34.6581 36.7125L35.024 34.3841C31.6799 34.3379 28.3433 34.0545 25.0394 33.536L21.9258 35.6368Z" fill="white"/>
<path d="M4.21094 28.361C5.24123 29.7977 7.13792 31.1247 9.70706 32.2784L15.3152 30.9507C13.2729 30.0148 11.8511 28.9722 11.0893 27.8528L4.21094 28.361Z" fill="white"/>
<path d="M4.45703 23.0215L11.4181 23.6642C12.3577 22.5594 13.9441 21.5439 16.1342 20.6424L10.3937 19.1282C7.67451 20.2644 5.63075 21.5841 4.45703 23.0215Z" fill="white"/>
<path d="M26.2661 18.1132C29.6184 17.6551 32.9983 17.4297 36.3817 17.4386V14.9799H36.3349C31.7249 14.9799 27.341 15.2909 23.3574 15.8536L26.2661 18.1132Z" fill="white"/>
<path d="M93.9626 48.6251C94.024 48.5461 94.0855 48.4664 94.1455 48.386L97.5803 43.891L96.6898 43.3397C99.7529 33.1982 92.7471 20.8347 79.9863 14.7144C69.6547 9.75955 58.4869 10.305 51.4226 15.3257L50.9338 15.0237L48.3302 18.123C48.2151 18.2556 48.1022 18.3896 47.9914 18.5251L47.9468 18.5785C47.1478 19.5643 46.4661 20.6394 45.9155 21.7823C40.8664 32.2894 47.9373 46.1597 61.7051 52.7626C74.0342 58.676 87.5532 56.7545 93.8689 48.7413L93.9626 48.6251Z" fill="url(#paint3_linear_57_5050)"/>
<path d="M98.0754 42.9356C103.123 32.4285 96.0536 18.5582 82.2858 11.9554C68.5177 5.35267 53.2649 8.51773 48.2175 19.0248C43.1702 29.5319 50.2396 43.4021 64.0075 50.0049C77.7753 56.6077 93.0285 53.4426 98.0754 42.9356Z" fill="#FF922E"/>
<path d="M57.3998 23.417V23.4236V23.4295V23.436V23.4412V23.447V23.4528V23.4594V23.4645V23.4711V23.477V23.4828V23.4887V23.4945V23.5004V23.5055V23.5113V23.5165V23.5223V23.5267V23.5333V23.5384V23.545V23.5494V23.5552V23.5596V23.5654V23.5706V23.5757V23.5801V23.5837V23.5896V23.594V23.5998V23.6035V23.6086V23.6137V23.6174V23.6232V23.6276V23.632V23.6356V23.64V23.6444V23.6481V23.6524V23.6576V23.6634V23.6685V23.6722V23.678V23.6817V23.689V23.6934L57.3961 23.7014V23.7058L57.391 23.719L57.3852 23.7321L57.38 23.7453V23.7497L57.3764 23.7585V23.7629L57.372 23.7716V23.776L57.3661 23.7906L57.3603 23.8053C57.3603 23.8096 57.3603 23.814 57.3544 23.8191C57.1788 24.2491 57.0322 24.6901 56.9154 25.1396L58.1418 25.5651C58.2973 24.9688 58.5098 24.3888 58.7762 23.833L57.3998 23.417ZM56.3944 27.2847C56.3944 27.3015 56.3944 27.3191 56.3944 27.3359V27.3512C56.3944 27.3549 56.3944 27.3578 56.3944 27.3615V27.3666V27.3761V27.3812V27.3966V27.4112V27.4317V27.6101V27.6262V27.6664V27.6737V27.681V27.6883V27.6956V27.7037V27.711V27.719V27.7263V27.7344V27.7504V27.7665C56.3944 27.7724 56.3944 27.7775 56.3944 27.7826V27.8119C56.3947 27.8172 56.3947 27.8226 56.3944 27.8279C56.3854 28.3408 56.4099 28.8537 56.4675 29.3633L57.7115 29.4825C57.6372 28.8441 57.6203 28.2003 57.661 27.5589L56.4112 27.284L56.3944 27.2847ZM56.8766 31.4792C57.0781 32.1735 57.3303 32.8521 57.631 33.5096L57.6376 33.5257L57.6449 33.541L57.6486 33.5483V33.5549V33.5622V33.5681V33.5746L58.804 33.3794C58.511 32.7499 58.2664 32.099 58.0723 31.4324L56.8583 31.4712L56.8766 31.4792ZM58.796 35.6284C59.2357 36.307 59.7197 36.956 60.2448 37.571L61.2085 37.0797C60.7226 36.5104 60.2745 35.9098 59.8672 35.2818L58.796 35.6284ZM61.9805 39.3674C62.4781 39.8222 63.004 40.2584 63.5581 40.6761L63.5742 40.6878L63.5896 40.6995L63.605 40.7112L63.6203 40.7229L63.6357 40.7339L63.6503 40.7449L63.665 40.7558L63.6723 40.7617L63.6789 40.7668L63.6855 40.7719L63.6913 40.7763L63.6979 40.7807L63.703 40.7843L63.7096 40.7895L63.7147 40.7931C63.7164 40.7952 63.7183 40.7969 63.7206 40.7982L63.725 40.8019L63.7308 40.8063H63.7352L63.7411 40.8107H63.7447L63.7513 40.815H63.7557L63.7608 40.8187L63.766 40.8224H63.7704L63.7769 40.8267H63.7813L63.7886 40.8319H63.793L63.8011 40.837V40.8406L63.8084 40.8465H63.8128L63.8216 40.8531C63.823 40.8547 63.8247 40.8559 63.8267 40.8567L63.8369 40.8633L63.853 40.875L63.8808 40.8955L64.565 40.1483C63.9556 39.7124 63.3712 39.2425 62.8147 38.7408L61.9812 39.3674H61.9805ZM66.1602 42.3614C66.3651 42.4755 66.5732 42.5868 66.7844 42.6955L66.802 42.705L66.8203 42.7138L66.8386 42.7226L66.8495 42.7284H66.8554L66.8649 42.7328H66.8708L66.8803 42.7372H66.8854L66.8942 42.7416H66.8993L66.9073 42.746H66.9125H66.9169H66.9234H66.9278H66.9344H66.9388L66.9461 42.7496H66.9498H66.9542H66.96H66.9652H66.9688H66.9739H66.9791H66.9842H66.9878H66.993H66.9981H67.0032H67.0091H67.0134H67.0186L67.0252 42.7533H67.0295H67.0347L67.042 42.7569H67.0478L67.0552 42.7606H67.0603L67.0676 42.7642H67.0735H67.0808H67.0866H67.0939L67.1013 42.7679H67.1093L67.1166 42.7716L67.1247 42.7752L67.132 42.7789L67.1393 42.7825L67.1474 42.7862L67.1547 42.7898L67.1627 42.7935L67.17 42.7971L67.1788 42.8015L67.1861 42.8052L67.1942 42.8096L67.2008 42.8132L67.2088 42.8176L67.2161 42.8213L67.2249 42.8249L67.233 42.8286L67.241 42.833L67.2491 42.8374L67.2578 42.8417L67.2659 42.8461L67.2739 42.8498L67.2805 42.8534L67.2886 42.8571H67.2952H67.3018L67.3098 42.8608H67.3164L67.3237 42.8644H67.3303H67.3369H67.3449L67.3515 42.8681L67.3588 42.8717L67.3669 42.8761H67.3735L67.3808 42.8798H67.3888H67.3961L67.4042 42.8834H67.4123L67.4291 42.8915L67.4371 42.8959L67.454 42.9039L67.4796 42.9163L67.4971 42.9244C67.6923 43.0145 67.8862 43.1013 68.0789 43.1847H68.0876L68.1052 43.192H68.1125L68.1206 43.1956H68.1272H68.1337H68.1403H68.1455H68.1513H68.1572H68.1616L68.1784 43.2029L68.3416 43.2709L68.6891 42.3373C68.3394 42.191 67.9874 42.0346 67.6435 41.8693C67.263 41.6866 66.8832 41.4906 66.5166 41.2844L66.1602 42.3614ZM71.1178 43.3535L70.9532 44.3515C71.4747 44.5012 71.9957 44.6299 72.5162 44.7376L72.5352 44.742H72.5542L72.5732 44.7463H72.5835H72.5923H72.6018H72.6106H72.6193H72.6274H72.6362H72.6442H72.653H72.6603H72.6691H72.6757H72.6837H72.6911H72.6984H72.7057H72.7137H72.7269H72.7328H72.7664H72.7708H72.7855H72.7906H72.8045H72.8103H72.822H72.8301H72.8418H72.8498H72.855H72.8652L72.8828 44.75L72.9003 44.7537L72.9179 44.7573H72.9362L72.9742 44.7639C73.1284 44.7922 73.2823 44.8189 73.436 44.8443L73.425 43.8683C72.6456 43.7422 71.8744 43.5699 71.1156 43.3521L71.1178 43.3535ZM75.7278 44.0978L75.9371 45.1558C75.9817 45.1558 76.0271 45.1558 76.0717 45.1602H76.2912C76.7339 45.1684 77.173 45.1609 77.6084 45.1375H77.6267H77.645H77.6947H77.7101H77.8484H77.8667H77.885C78.0467 45.1263 78.2084 45.1132 78.3694 45.098L77.9786 44.0452C77.2323 44.1152 76.4815 44.1367 75.7322 44.1095L75.7278 44.0978ZM80.2434 43.97L80.6802 44.7032C80.7702 44.682 80.8595 44.6593 80.9495 44.6367L80.9664 44.6323L80.9825 44.6279H80.9912H80.9993H81.0073H81.0154H81.0234L81.0388 44.6235H81.0461H81.0542H81.0615H81.0681H81.0761H81.082H81.0893H81.0966H81.1039H81.1105H81.1164H81.1237H81.1295H81.1361H81.1405H81.1471H81.1522H81.1588H81.1639H81.1683H81.1727H81.1786H81.183H81.1888H81.1961H81.202H81.2056H81.21H81.2151H81.2195H81.2239H81.2283H81.2327H81.2378H81.2437H81.2473H81.2532H81.2605H81.2664H81.27H81.2766H81.2861H81.2934H81.2978H81.3015H81.3081H81.3147H81.3183H81.3227H81.33H81.3395H81.3469H81.3512H81.3586H81.363H81.3717L81.3864 44.6191L81.4017 44.6147H81.4113H81.4164H81.4252H81.4303H81.4391L81.4537 44.6104L81.4683 44.606H81.4771H81.4815H81.4903H81.4954H81.5042L81.5188 44.6016L81.5342 44.5965H81.5437H81.5488H81.5591H81.5642H81.5744L81.5898 44.5921L81.6052 44.5877L81.6205 44.5826L81.6476 44.5745L81.6637 44.5701L81.6791 44.5658L81.6944 44.5606L81.7215 44.5519L81.7376 44.5467L81.753 44.5416L81.7683 44.5372L81.7947 44.5292L81.8108 44.5241L81.8262 44.519L81.8415 44.5131L81.8569 44.508L81.8671 44.5043L81.8825 44.4992L81.8979 44.4934L81.9132 44.4883H81.9227H81.9279H81.9374H81.9425L81.9527 44.4846L81.9681 44.4795L81.9827 44.4744H81.9915H81.9959H82.004H82.0091H82.0186L82.0332 44.4692L82.0479 44.4641H82.0567H82.061H82.0684H82.0728H82.0808H82.0852H82.0932L82.1071 44.459H82.1145H82.1189H82.1262H82.1306H82.1364H82.1408H82.1467H82.1511H82.1562H82.162H82.1657H82.1701H82.1767H82.1803H82.1862H82.1898H82.1942H82.1993H82.2052H82.2096H82.2154H82.2198H82.2242H82.2293H82.2337H82.2403H82.2454H82.252H82.2564H82.2623H82.2674H82.274H82.2791H82.2835H82.2901H82.2952H82.3018H82.3069H82.3135H82.3186H82.3259H82.3325H82.3398H82.3472H82.3537H82.3611H82.3676H82.375H82.3816H82.3889L82.4042 44.4532H82.4116H82.4189H82.4262H82.4335H82.4408L82.4562 44.4473L82.4716 44.4407L82.4869 44.4342L82.5352 44.4144L81.8144 43.4405C81.1691 43.7021 80.921 43.8085 80.2434 43.97ZM83.8919 42.1442L84.7568 43.0457C84.8497 42.9887 84.9419 42.9304 85.0319 42.871L85.0451 42.8622L85.0575 42.8542L85.0692 42.8461L85.0751 42.8417L85.0802 42.8381L85.0846 42.8344L85.0897 42.8308H85.0941H85.0993H85.1036L85.1095 42.8271H85.1146H85.1197H85.1241L85.13 42.8235H85.1351H85.1417L85.1475 42.8198L85.1534 42.8154L85.1666 42.8067L85.179 42.7979L85.1922 42.7891C85.6042 42.5078 85.9971 42.1999 86.3681 41.8671L85.3773 41.0629C84.9134 41.4637 84.4173 41.8247 83.8926 42.1421L83.8919 42.1442ZM86.7106 39.6175L87.8082 40.3135L87.8126 40.3076L87.817 40.3018V40.2981V40.293L87.8213 40.2872V40.2835L87.8257 40.2777V40.274L87.8345 40.263L87.8433 40.2513L87.8521 40.2396L87.8609 40.228V40.2243L87.8667 40.2163V40.2119L87.8762 40.1994L87.904 40.1614C88.2509 39.6845 88.556 39.1786 88.8165 38.6494L87.6457 38.0792C87.3728 38.632 87.0479 39.1574 86.6747 39.6482L86.7106 39.6175ZM88.6453 34.4776C88.5992 35.1 88.4938 35.7166 88.3314 36.3193L89.5548 36.7521C89.5717 36.69 89.5885 36.6279 89.6039 36.5657V36.5511L89.6083 36.5365V36.527V36.5226C89.6083 36.5182 89.6083 36.5131 89.6083 36.5087V36.4992V36.4948V36.486V36.4816V36.4736V36.4663V36.459V36.4392V36.4334V36.4239V36.418V36.4085V36.4027V36.3873V36.3712V36.3559V36.3515V36.3456V36.3361V36.3303V36.3208V36.3149V36.293V36.2879V36.2813V36.2762V36.2696V36.2638V36.2572V36.2513V36.2447V36.2199V36.2126V36.206V36.1987V36.1848V36.1709V36.1563V36.1417V36.127V36.1117C89.699 35.6677 89.7605 35.2183 89.7941 34.7664L88.6453 34.4776ZM88.234 30.6026C88.4141 31.2432 88.5406 31.8976 88.6124 32.5591L89.8563 32.6863C89.8161 32.3056 89.7575 31.9243 89.6807 31.5421C89.6807 31.5224 89.6734 31.5026 89.669 31.4836C89.669 31.4785 89.669 31.4734 89.669 31.4683C89.669 31.4631 89.669 31.458 89.669 31.4529C89.669 31.4478 89.669 31.4427 89.669 31.4375V31.4273V31.4222V31.4127V31.4083V31.3988V31.3842V31.3695V31.3608V31.3527V31.3454V31.341V31.3352V31.3279V31.3242V31.3118V31.3059V31.2957V31.2899V31.2789V31.273V31.2482V31.2431V31.235V31.227V31.2211V31.2109V31.2043V31.1948V31.1882V31.1824V31.1751V31.1692V31.1626V31.1568V31.1502V31.1436V31.1371V31.1305V31.1246V31.1173V31.1115V31.1049V31.099V31.0917V31.0771C89.669 31.0745 89.669 31.0718 89.669 31.0691V31.0617V31.0544V31.0471V31.0398V31.0318V31.0237C89.669 31.0186 89.669 31.0135 89.669 31.0084C89.669 31.0033 89.669 30.9981 89.669 30.993L89.6646 30.9769C89.6646 30.9711 89.6646 30.966 89.6646 30.9601C89.6353 30.8446 89.6046 30.7291 89.5724 30.6136L88.3562 30.645L88.234 30.6026ZM86.4896 26.7554C86.8774 27.3642 87.222 27.9994 87.5206 28.6563L88.6797 28.4691C88.357 27.7616 87.9845 27.0775 87.566 26.422L86.4896 26.7612V26.7554ZM83.5728 23.2788C84.1377 23.8021 84.6697 24.3598 85.1658 24.9487L86.1354 24.464C86.0564 24.3704 85.9766 24.2773 85.8961 24.1847L85.8888 24.1752V24.1708L85.8822 24.1635L85.8786 24.1599L85.8734 24.1547V24.1511L85.869 24.1467L85.8647 24.1416V24.1379L85.8603 24.1328V24.1291L85.8551 24.1233L85.8508 24.1182L85.8464 24.1123L85.8412 24.1058L85.8361 24.1006L85.8303 24.0948L85.8251 24.0897L85.8193 24.0831L85.8142 24.0772L85.8083 24.0714L85.8032 24.0655L85.7973 24.059L85.7849 24.0451L85.7717 24.0312C85.561 23.7967 85.3429 23.5654 85.1183 23.3373L85.1044 23.3242L85.0912 23.311L85.0773 23.2979L85.0641 23.2847L85.0583 23.2781L85.0517 23.2715L85.0451 23.2649L85.0392 23.2591L85.0327 23.2525L85.0268 23.2467L85.021 23.2408L85.0151 23.2357L85.0092 23.2299L85.0041 23.224L84.999 23.2182L84.9939 23.2123L84.9895 23.2079L84.9844 23.2021L84.98 23.1977L84.9748 23.1918L84.9705 23.1874L84.9653 23.1823L84.9602 23.1779V23.1743L84.9558 23.1699L84.9507 23.1648L84.9456 23.1597V23.156L84.9405 23.1509L84.9287 23.1392L84.9163 23.1275C84.9127 23.123 84.9083 23.1189 84.9039 23.1151C84.7846 22.999 84.6631 22.8842 84.538 22.7707L83.5728 23.2788ZM79.7282 20.4896C80.4256 20.8815 81.0995 21.3131 81.7471 21.7822L82.4386 21.0408C82.2176 20.88 81.9923 20.7228 81.7632 20.5693L81.7471 20.5583L81.7369 20.551H81.7318L81.7215 20.5444H81.7171L81.7091 20.5393H81.704L81.6952 20.5334H81.6908H81.6864L81.6805 20.5291H81.6769L81.671 20.5247H81.6674L81.6615 20.521H81.6564L81.6498 20.5166H81.6447L81.6381 20.5122H81.633L81.6257 20.5078L81.6205 20.5042L81.6132 20.4991L81.6066 20.4954L81.5474 20.4274L81.54 20.4223L81.5247 20.4121L81.5086 20.4018L81.4925 20.3916L81.4764 20.3814L81.4596 20.3704C81.0944 20.134 80.719 19.9069 80.3341 19.689L80.3253 19.6839L80.3166 19.6787L80.3085 19.6736L80.3005 19.6685L80.2931 19.6641L80.2851 19.6597L80.2785 19.6553L80.2712 19.651L79.7421 20.4962L79.7282 20.4896ZM75.4739 17.6272L75.299 18.6223C76.0673 18.8473 76.8225 19.1158 77.5608 19.4265L77.9179 18.4965C77.7525 18.4234 77.5879 18.3598 77.4225 18.294L77.4035 18.2867L77.3852 18.2794L77.3764 18.2757H77.3676H77.3596H77.3508H77.3435H77.3354H77.3281H77.3201H77.3135L77.3047 18.272H77.2974H77.2893H77.2828H77.2762H77.2703H77.2645H77.2601H77.2542H77.2491H77.2447H77.2388H77.2352H77.2301H77.2257H77.2198H77.2162H77.211H77.2067H77.2008H77.1964H77.1898H77.1854H77.181H77.1759H77.1701H77.1649H77.1584H77.154H77.1488H77.1437L77.1357 18.2684H77.1306L77.121 18.2647H77.1159L77.1049 18.2603H77.0991L77.0881 18.256H77.0823L77.0698 18.2516H77.064L77.0522 18.2472H77.0464L77.034 18.2428H77.0274L77.0091 18.2355L76.9908 18.2289L76.9718 18.2223L76.9527 18.215L76.8642 18.0878L76.8452 18.0812C76.3893 17.9145 75.932 17.7644 75.4739 17.6308V17.6272ZM70.4863 16.7915L70.6861 17.8495C71.4587 17.8828 72.2284 17.9636 72.9911 18.0915L72.9779 17.0532L72.7489 17.0167H72.7372H72.7306H72.7196H72.7137H72.7035H72.6933H72.6845H72.5301H72.5213H72.5125H72.503H72.484H72.4649C71.8015 16.9231 71.1444 16.8626 70.4936 16.8354L70.4863 16.7915ZM65.7351 17.2104L66.2883 18.234C66.9952 18.0714 67.7126 17.9581 68.4352 17.8948L68.054 16.8449C67.694 16.8763 67.3376 16.918 66.9856 16.9721H66.9681H66.9505H66.9344H66.9264H66.7661H66.7581H66.7427H66.7273H66.7164H66.7105H66.6995H66.6827H66.6659C66.3541 17.0252 66.0473 17.0871 65.7453 17.1578L65.7351 17.2104ZM61.6373 18.8416L62.4957 19.7467C63.0699 19.4019 63.6714 19.1045 64.2943 18.8577L63.5808 17.8809C63.2393 18.0169 62.9064 18.1651 62.582 18.3254L62.5674 18.3327L62.552 18.34L62.4986 18.3671L62.4839 18.3744L62.4686 18.3817L62.4613 18.3854L62.4313 18.4007L62.4166 18.408L62.402 18.4161L62.35 18.4431L62.3354 18.4504L62.3208 18.4578L62.3054 18.4658L62.2834 18.4775L62.2688 18.4855L62.2542 18.4928L62.2395 18.5002L62.2249 18.5082L62.203 18.5199L62.1883 18.5279L62.1744 18.536L62.1598 18.544L62.1451 18.5521L62.1305 18.5601L62.1232 18.5645L62.1093 18.5718L62.0954 18.5791L62.0815 18.5872L62.0669 18.5952L62.0522 18.6033H62.0449L62.0303 18.6113L62.0164 18.6193L62.0025 18.6274L61.9959 18.6318L61.9886 18.6354H61.982L61.9754 18.6391L61.9681 18.6427L61.9615 18.6464H61.9542L61.941 18.6537L61.9278 18.6617L61.9212 18.6654H61.9147H61.9088H61.9029L61.8971 18.6691H61.892H61.8861H61.881H61.8751L61.8693 18.6727H61.8642H61.8576H61.8532H61.8473H61.8429L61.8371 18.6764H61.832H61.8261H61.821H61.8166H61.8115H61.8071H61.802H61.7983H61.7932H61.7895H61.7844H61.78H61.7764H61.7705H61.7668L61.7603 18.68L61.7522 18.6844L61.739 18.6924L61.7288 18.6983L61.6373 18.8416ZM58.5596 21.5468L59.6492 22.2487C60.0341 21.7543 60.4648 21.2973 60.9356 20.8837L59.9506 20.0714C59.846 20.1635 59.7436 20.2563 59.6433 20.3521L59.6323 20.3624L59.6221 20.3719L59.617 20.3762V20.3799V20.3836L59.6126 20.3879L59.6082 20.3923V20.396L59.6038 20.4004L59.5994 20.4048L59.5943 20.4099L59.5899 20.415L59.5848 20.4201L59.5797 20.4252L59.5738 20.4303L59.5628 20.4413L59.5518 20.4523L59.5409 20.4633C59.2095 20.7901 58.9001 21.1384 58.6145 21.5058L58.5596 21.5468Z" fill="white"/>
<path d="M55.4425 22.4922C56.3206 20.6687 57.6377 19.1239 59.3595 17.9014C61.0242 16.7199 62.9941 15.8879 65.2135 15.4265C67.4329 14.9652 69.7964 14.8994 72.2309 15.2298C77.3948 15.9651 82.2068 18.273 86.0111 21.8393C87.7922 23.5304 89.2169 25.4131 90.2472 27.4332C91.2775 29.4533 91.857 31.5107 91.9778 33.5469C92.1007 35.6548 91.7187 37.6486 90.8428 39.4691C89.9669 41.2896 88.6476 42.8374 86.9258 44.0599C85.2611 45.2414 83.2905 46.0734 81.0719 46.5347C78.8532 46.9961 76.4889 47.0619 74.0544 46.7314C68.8902 45.9962 64.0783 43.6882 60.2742 40.122C58.4968 38.4338 57.0677 36.5519 56.0381 34.531C55.0086 32.5102 54.4283 30.4535 54.3076 28.4173C54.1846 26.3094 54.5666 24.3164 55.4425 22.4951M55.1498 22.354C51.505 29.9358 56.6074 39.9487 66.546 44.7149C76.4845 49.4812 87.4958 47.2008 91.1392 39.6131C94.7826 32.0254 89.6801 22.0155 79.7415 17.2492C69.803 12.483 58.7895 14.7663 55.1483 22.3511L55.1498 22.354Z" fill="#F7FAF6"/>
<path d="M56.5244 23.0114C57.3469 21.2991 58.5843 19.8492 60.2015 18.6977C61.7645 17.5886 63.6143 16.807 65.6998 16.3742C67.7853 15.9413 70.0024 15.8799 72.2855 16.1899C77.1355 16.8822 81.654 19.0513 85.2257 22.4016C86.8977 23.9896 88.2361 25.7561 89.2027 27.6533C90.1693 29.5506 90.7159 31.4816 90.8272 33.3927C90.9428 35.3719 90.5842 37.2436 89.7618 38.9559C88.9393 40.6682 87.7019 42.1181 86.084 43.2659C84.5217 44.3751 82.6719 45.1566 80.5857 45.5895C78.4995 46.0223 76.283 46.0837 74 45.7737C69.1492 45.084 64.6294 42.9161 61.0569 39.5657C59.3848 37.9777 58.0472 36.2112 57.0806 34.314C56.1139 32.4167 55.5666 30.4865 55.4554 28.5746C55.3397 26.5954 55.6983 24.7237 56.5215 23.0114M56.2288 22.8703C52.8042 29.9988 57.6001 39.4092 66.9408 43.8889C76.2815 48.3685 86.6299 46.2219 90.0545 39.0941C93.479 31.9663 88.6832 22.5552 79.3424 18.0755C70.0017 13.5959 59.6548 15.7425 56.2273 22.8703H56.2288Z" fill="#F7FAF6"/>
<path d="M52.6086 28.2718C52.4696 25.9366 52.8918 23.7256 53.8643 21.7004L48.2299 18.9996L48.2167 19.0259C46.9405 21.6814 46.44 24.5518 46.6252 27.4654L52.6086 28.2718Z" fill="#F7FAF6"/>
<path d="M55.793 11.2883L59.5168 15.5092C61.6389 14.362 64.08 13.655 66.7611 13.4079L65.0078 8.62921C61.6338 8.93629 58.4931 9.8385 55.793 11.2883Z" fill="white"/>
<path d="M80.3474 16.0223C81.8578 16.7465 83.3008 17.6028 84.6603 18.5813L87.7739 15.2181C84.7811 13.0659 81.4772 11.3822 77.9766 10.2252L76.9434 14.6514C78.1061 15.0356 79.2432 15.4935 80.3474 16.0223Z" fill="white"/>
<path d="M96.5354 24.7031L91.5449 26.0374C92.8774 28.3303 93.6838 30.6882 93.9421 33.0468L99.589 33.6098C99.2575 30.6056 98.2067 27.5743 96.5354 24.7031Z" fill="white"/>
<path d="M93.8739 48.7436L93.9646 48.6244C94.0261 48.5454 94.0875 48.4657 94.1475 48.3853L97.5824 43.8903L91.5938 50.0457L91.7401 50.9838C92.5179 50.3032 93.2321 49.5534 93.8739 48.7436Z" fill="#EDE8E8"/>
<path d="M69.1035 55.368C72.9949 56.2673 76.8403 56.4371 80.3856 55.93L80.5092 53.3952L70.0065 52.2552L69.1035 55.368Z" fill="#EDE8E8"/>
<path d="M48.2852 41.3555C50.266 44.3531 52.9332 47.1314 56.1712 49.4755L57.83 46.2402L50.547 38.5377L48.2852 41.3555Z" fill="#EDE8E8"/>
<path d="M48.2191 19.0259L46.8793 20.0568C46.523 20.612 46.2007 21.1882 45.9141 21.7823C44.7097 24.2901 44.196 26.9894 44.2977 29.7356L46.6254 27.4654L48.2191 19.0259Z" fill="#EDE8E8"/>
<path d="M91.5908 50.0464C94.089 48.4935 96.1481 46.4288 97.5794 43.891L92.346 41.1229C91.2418 43.0729 89.6583 44.696 87.6387 45.9484L91.5908 50.0464Z" fill="white"/>
<path d="M70.0078 52.2544C73.5875 53.2414 77.1533 53.607 80.5105 53.3942L79.0192 48.7026C76.3074 48.8488 73.5246 48.5242 70.7505 47.7324L70.0078 52.2544Z" fill="white"/>
<path d="M57.8299 46.2402L61.2303 42.9355C58.9619 41.1807 57.0675 39.1475 55.6091 36.8948L50.5469 38.5377C52.3997 41.3547 54.8598 43.9839 57.8299 46.2402Z" fill="white"/>
<path d="M52.6086 28.2718C52.4696 25.9366 52.8918 23.7256 53.8643 21.7004L48.2299 18.9996L48.2167 19.0259C46.9405 21.6814 46.44 24.5518 46.6252 27.4654L52.6086 28.2718Z" fill="white"/>
<path d="M24.2562 31.029H23.5977V31.2485H24.2562V31.029Z" fill="#FF922E"/>
<path d="M88.6332 38.1518C91.7343 31.6965 87.3907 23.1748 78.9324 19.1181C70.4734 15.0615 61.1023 17.0061 58.0012 23.4614C54.9002 29.9168 59.2435 38.4385 67.7023 42.4951C76.1613 46.5518 85.532 44.6072 88.6332 38.1518Z" fill="white"/>
<defs>
<linearGradient id="paint0_linear_57_5050" x1="14.1619" y1="32.6718" x2="41.9615" y2="41.8453" gradientUnits="userSpaceOnUse">
<stop stop-color="#D86C1A"/>
<stop offset="1" stop-color="#E87E25"/>
</linearGradient>
<linearGradient id="paint1_linear_57_5050" x1="37.8142" y1="30.3192" x2="33.4845" y2="47.3967" gradientUnits="userSpaceOnUse">
<stop stop-color="#FF922E"/>
<stop offset="1" stop-color="#FFC239"/>
</linearGradient>
<linearGradient id="paint2_linear_57_5050" x1="16.7251" y1="24.1387" x2="44.5254" y2="33.3122" gradientUnits="userSpaceOnUse">
<stop stop-color="#D86C1A"/>
<stop offset="1" stop-color="#E87E25"/>
</linearGradient>
<linearGradient id="paint3_linear_57_5050" x1="44.2881" y1="33.7385" x2="97.5803" y2="33.7385" gradientUnits="userSpaceOnUse">
<stop stop-color="#D86C1A"/>
<stop offset="1" stop-color="#E87E25"/>
</linearGradient>
</defs>
</svg>
