<svg width="26" height="24" viewBox="0 0 26 24" fill="none" xmlns="http://www.w3.org/2000/svg">
<path d="M4.42791 4.57913H4.42857H21.5714H21.5717C21.75 4.57905 21.9282 4.59067 22.1052 4.61392L22.7558 4.69942L22.6656 4.04947C22.5893 3.49912 22.4051 2.96976 22.1236 2.49332C21.8422 2.01686 21.4691 1.60291 21.0262 1.27701C20.5834 0.951077 20.0801 0.720069 19.5465 0.598581C19.0143 0.477407 18.4636 0.467835 17.9277 0.570454L3.87615 3.03351H3.85495L3.80724 3.04288C2.79365 3.24188 1.89575 3.83 1.29472 4.68265L1.99827 5.37451C2.70917 4.85536 3.55853 4.57798 4.42791 4.57913ZM4.42857 4.07913H21.5714C21.6004 4.07912 21.6294 4.07938 21.6584 4.07992C21.6646 4.11545 21.6701 4.15111 21.6751 4.1869L22.1704 4.11819L22.2355 3.62245C22.1775 3.61482 22.1193 3.6082 22.0611 3.60258C21.975 3.30321 21.8515 3.01577 21.6931 2.74763C21.4456 2.32854 21.1179 1.96526 20.7299 1.67971C20.3419 1.39415 19.9016 1.19222 19.4355 1.0861C18.9694 0.979983 18.4872 0.971868 18.018 1.06225L4.42857 4.07913ZM21.572 4.89919H21.5714L4.42857 4.89919L4.42801 4.89919C3.38228 4.90037 2.38244 5.32752 1.64712 6.08249C0.912228 6.83701 0.501129 7.8573 0.5 8.91882V8.91936L0.5 19.4798L0.5 19.4804C0.501129 20.5419 0.912228 21.5622 1.64712 22.3167L2.00097 21.9721L1.64712 22.3167C2.38244 23.0717 3.38227 23.4988 4.42801 23.5H4.42857H21.5714H21.572C22.6177 23.4988 23.6176 23.0717 24.3529 22.3167C25.0878 21.5622 25.4989 20.5419 25.5 19.4804V19.4798V8.91936V8.91882C25.4989 7.8573 25.0878 6.83701 24.3529 6.08249C23.6176 5.32752 22.6177 4.90037 21.572 4.89919ZM17.9067 14.6861L17.443 14.8732L17.9067 14.6861C17.8131 14.4542 17.7885 14.1983 17.8363 13.9513C17.8842 13.7044 18.0019 13.4793 18.1728 13.3039C18.3435 13.1286 18.5594 13.0108 18.7924 12.9632C19.0253 12.9157 19.2669 12.9399 19.4871 13.0336C19.7075 13.1274 19.8981 13.287 20.0331 13.4945C20.1682 13.7021 20.2411 13.9475 20.2411 14.1996C20.2411 14.538 20.11 14.8599 19.8808 15.0953C19.652 15.3302 19.3445 15.4597 19.0268 15.4597C18.7896 15.4597 18.5566 15.3875 18.3572 15.2507C18.1577 15.1138 18.0002 14.9179 17.9067 14.6861Z" stroke="#3B436B"/>
</svg>
